<?xml version="1.0" encoding="utf-8" standalone="no"?>
<!DOCTYPE svg PUBLIC "-//W3C//DTD SVG 1.1//EN"
  "http://www.w3.org/Graphics/SVG/1.1/DTD/svg11.dtd">
<!-- Created with matplotlib (https://matplotlib.org/) -->
<svg height="288pt" version="1.1" viewBox="0 0 432 288" width="432pt" xmlns="http://www.w3.org/2000/svg" xmlns:xlink="http://www.w3.org/1999/xlink">
 <metadata>
  <rdf:RDF xmlns:cc="http://creativecommons.org/ns#" xmlns:dc="http://purl.org/dc/elements/1.1/" xmlns:rdf="http://www.w3.org/1999/02/22-rdf-syntax-ns#">
   <cc:Work>
    <dc:type rdf:resource="http://purl.org/dc/dcmitype/StillImage"/>
    <dc:date>2021-06-17T17:12:05.815045</dc:date>
    <dc:format>image/svg+xml</dc:format>
    <dc:creator>
     <cc:Agent>
      <dc:title>Matplotlib v3.3.4, https://matplotlib.org/</dc:title>
     </cc:Agent>
    </dc:creator>
   </cc:Work>
  </rdf:RDF>
 </metadata>
 <defs>
  <style type="text/css">*{stroke-linecap:butt;stroke-linejoin:round;}</style>
 </defs>
 <g id="figure_1">
  <g id="patch_1">
   <path d="M 0 288 
L 432 288 
L 432 0 
L 0 0 
z
" style="fill:none;"/>
  </g>
  <g id="axes_1">
   <g id="patch_2">
    <path d="M 112.68 252 
L 330.12 252 
L 330.12 34.56 
L 112.68 34.56 
z
" style="fill:#ffffff;"/>
   </g>
   <g id="line2d_1">
    <path clip-path="url(#p8957b2c889)" d="M 112.68 252 
L 330.12 34.56 
" style="fill:none;stroke:#000000;stroke-linecap:square;stroke-opacity:0.75;stroke-width:1.5;"/>
   </g>
   <g id="PolyCollection_1">
    <path clip-path="url(#p8957b2c889)" d="M 134.952776 228.19036 
L 134.952776 236.377569 
L 136.924163 234.609426 
L 138.895549 232.831256 
L 140.866935 231.046843 
L 142.838321 229.241087 
L 144.809707 227.45702 
L 146.781093 225.703079 
L 148.752479 224.025813 
L 150.723865 222.296326 
L 152.695251 220.549936 
L 154.666637 218.756364 
L 156.638023 217.037752 
L 158.60941 215.225762 
L 160.580796 213.546682 
L 162.552182 211.837586 
L 164.523568 210.114512 
L 166.494954 208.405119 
L 168.46634 206.78019 
L 170.437726 205.155114 
L 172.409112 203.477477 
L 174.380498 201.799839 
L 176.351884 200.127854 
L 178.323271 198.524208 
L 180.294657 196.944504 
L 182.266043 195.33721 
L 184.237429 193.731209 
L 186.208815 192.060527 
L 188.180201 190.422917 
L 190.151587 188.794783 
L 192.122973 187.157437 
L 194.094359 185.604717 
L 196.065745 184.042011 
L 198.037132 182.378206 
L 200.008518 180.73585 
L 201.979904 179.098586 
L 203.95129 177.471087 
L 205.922676 175.773327 
L 207.894062 174.163441 
L 209.865448 172.581806 
L 211.836834 171.024933 
L 213.80822 169.454412 
L 215.779606 167.890655 
L 217.750992 166.362996 
L 219.722379 164.811037 
L 221.693765 163.219974 
L 223.665151 161.627239 
L 225.636537 160.055857 
L 227.607923 158.46114 
L 229.579309 156.849197 
L 231.550695 155.25731 
L 233.522081 153.665422 
L 235.493467 152.073819 
L 237.464853 150.523822 
L 239.43624 148.973825 
L 241.407626 147.423827 
L 243.379012 145.872764 
L 245.350398 144.270284 
L 247.321784 142.647269 
L 249.29317 141.132135 
L 251.264556 139.637324 
L 253.235942 138.116571 
L 255.207328 136.549963 
L 257.178714 134.982337 
L 259.150101 133.452775 
L 261.121487 131.920438 
L 263.092873 130.376539 
L 265.064259 128.827419 
L 267.035645 127.278299 
L 269.007031 125.729179 
L 270.978417 124.180059 
L 272.949803 122.653509 
L 274.921189 121.130089 
L 276.892575 119.602006 
L 278.863961 117.982313 
L 280.835348 116.43189 
L 282.806734 114.880947 
L 284.77812 113.289189 
L 286.749506 111.685679 
L 288.720892 110.082169 
L 290.692278 108.478659 
L 292.663664 106.875149 
L 294.63505 105.293182 
L 296.606436 103.737336 
L 298.577822 102.181309 
L 300.549209 100.624691 
L 302.520595 99.068073 
L 304.491981 97.511455 
L 306.463367 95.954837 
L 308.434753 94.408462 
L 310.406139 92.870999 
L 312.377525 91.333536 
L 314.348911 89.796073 
L 316.320297 88.252915 
L 318.291683 86.673558 
L 320.26307 85.129671 
L 322.234456 83.605497 
L 324.205842 82.081322 
L 326.177228 80.557148 
L 328.148614 79.032973 
L 330.12 77.504352 
L 330.12 56.263835 
L 330.12 56.263835 
L 328.148614 58.086606 
L 326.177228 59.861266 
L 324.205842 61.635925 
L 322.234456 63.410585 
L 320.26307 65.185245 
L 318.291683 66.960622 
L 316.320297 68.774571 
L 314.348911 70.610016 
L 312.377525 72.445461 
L 310.406139 74.280906 
L 308.434753 76.116351 
L 306.463367 77.951796 
L 304.491981 79.787241 
L 302.520595 81.622686 
L 300.549209 83.458131 
L 298.577822 85.293575 
L 296.606436 87.090544 
L 294.63505 88.883561 
L 292.663664 90.713233 
L 290.692278 92.542905 
L 288.720892 94.358915 
L 286.749506 96.145387 
L 284.77812 97.929495 
L 282.806734 99.688692 
L 280.835348 101.435121 
L 278.863961 103.204535 
L 276.892575 104.966282 
L 274.921189 106.752278 
L 272.949803 108.538962 
L 270.978417 110.325645 
L 269.007031 112.112328 
L 267.035645 113.899012 
L 265.064259 115.685695 
L 263.092873 117.472379 
L 261.121487 119.259062 
L 259.150101 121.046247 
L 257.178714 122.834725 
L 255.207328 124.609468 
L 253.235942 126.379218 
L 251.264556 128.148969 
L 249.29317 129.962736 
L 247.321784 131.774405 
L 245.350398 133.525194 
L 243.379012 135.273693 
L 241.407626 137.022192 
L 239.43624 138.792465 
L 237.464853 140.601871 
L 235.493467 142.413389 
L 233.522081 144.225435 
L 231.550695 146.074944 
L 229.579309 147.862938 
L 227.607923 149.657982 
L 225.636537 151.444258 
L 223.665151 153.225485 
L 221.693765 155.012952 
L 219.722379 156.787055 
L 217.750992 158.55676 
L 215.779606 160.333795 
L 213.80822 162.091781 
L 211.836834 163.886001 
L 209.865448 165.659459 
L 207.894062 167.414042 
L 205.922676 169.209803 
L 203.95129 170.972503 
L 201.979904 172.672356 
L 200.008518 174.370999 
L 198.037132 176.063816 
L 196.065745 177.763062 
L 194.094359 179.451867 
L 192.122973 181.17162 
L 190.151587 182.889912 
L 188.180201 184.571359 
L 186.208815 186.265506 
L 184.237429 187.967042 
L 182.266043 189.638392 
L 180.294657 191.295245 
L 178.323271 192.945099 
L 176.351884 194.635289 
L 174.380498 196.267712 
L 172.409112 197.873187 
L 170.437726 199.533845 
L 168.46634 201.108246 
L 166.494954 202.738717 
L 164.523568 204.34991 
L 162.552182 205.970993 
L 160.580796 207.571589 
L 158.60941 209.171956 
L 156.638023 210.773746 
L 154.666637 212.377683 
L 152.695251 214.001394 
L 150.723865 215.61078 
L 148.752479 217.190803 
L 146.781093 218.777402 
L 144.809707 220.346668 
L 142.838321 221.924579 
L 140.866935 223.482747 
L 138.895549 225.053392 
L 136.924163 226.590442 
L 134.952776 228.19036 
z
" style="fill:#1f77b4;fill-opacity:0.15;"/>
   </g>
   <g id="PathCollection_1">
    <defs>
     <path d="M 0 3 
C 0.795609 3 1.55874 2.683901 2.12132 2.12132 
C 2.683901 1.55874 3 0.795609 3 0 
C 3 -0.795609 2.683901 -1.55874 2.12132 -2.12132 
C 1.55874 -2.683901 0.795609 -3 0 -3 
C -0.795609 -3 -1.55874 -2.683901 -2.12132 -2.12132 
C -2.683901 -1.55874 -3 -0.795609 -3 0 
C -3 0.795609 -2.683901 1.55874 -2.12132 2.12132 
C -1.55874 2.683901 -0.795609 3 0 3 
z
" id="m506c7ce4d5" style="stroke:#ffffff;stroke-width:0.48;"/>
    </defs>
    <g clip-path="url(#p8957b2c889)">
     <use style="fill:#1f77b4;stroke:#ffffff;stroke-width:0.48;" x="191.728696" xlink:href="#m506c7ce4d5" y="180.048294"/>
     <use style="fill:#1f77b4;stroke:#ffffff;stroke-width:0.48;" x="236.084883" xlink:href="#m506c7ce4d5" y="141.014849"/>
     <use style="fill:#1f77b4;stroke:#ffffff;stroke-width:0.48;" x="207.696923" xlink:href="#m506c7ce4d5" y="217.307491"/>
     <use style="fill:#1f77b4;stroke:#ffffff;stroke-width:0.48;" x="152.695251" xlink:href="#m506c7ce4d5" y="220.855986"/>
     <use style="fill:#1f77b4;stroke:#ffffff;stroke-width:0.48;" x="271.569833" xlink:href="#m506c7ce4d5" y="114.401137"/>
     <use style="fill:#1f77b4;stroke:#ffffff;stroke-width:0.48;" x="307.054783" xlink:href="#m506c7ce4d5" y="87.787425"/>
     <use style="fill:#1f77b4;stroke:#ffffff;stroke-width:0.48;" x="168.663479" xlink:href="#m506c7ce4d5" y="196.016521"/>
     <use style="fill:#1f77b4;stroke:#ffffff;stroke-width:0.48;" x="259.150101" xlink:href="#m506c7ce4d5" y="105.529899"/>
     <use style="fill:#1f77b4;stroke:#ffffff;stroke-width:0.48;" x="223.665151" xlink:href="#m506c7ce4d5" y="141.014849"/>
     <use style="fill:#1f77b4;stroke:#ffffff;stroke-width:0.48;" x="186.405954" xlink:href="#m506c7ce4d5" y="203.113511"/>
     <use style="fill:#1f77b4;stroke:#ffffff;stroke-width:0.48;" x="147.372509" xlink:href="#m506c7ce4d5" y="220.855986"/>
     <use style="fill:#1f77b4;stroke:#ffffff;stroke-width:0.48;" x="152.695251" xlink:href="#m506c7ce4d5" y="220.855986"/>
     <use style="fill:#1f77b4;stroke:#ffffff;stroke-width:0.48;" x="175.760469" xlink:href="#m506c7ce4d5" y="197.790769"/>
     <use style="fill:#1f77b4;stroke:#ffffff;stroke-width:0.48;" x="182.857459" xlink:href="#m506c7ce4d5" y="201.339264"/>
     <use style="fill:#1f77b4;stroke:#ffffff;stroke-width:0.48;" x="191.728696" xlink:href="#m506c7ce4d5" y="187.145284"/>
     <use style="fill:#1f77b4;stroke:#ffffff;stroke-width:0.48;" x="221.890903" xlink:href="#m506c7ce4d5" y="158.757324"/>
     <use style="fill:#1f77b4;stroke:#ffffff;stroke-width:0.48;" x="214.793913" xlink:href="#m506c7ce4d5" y="148.111839"/>
     <use style="fill:#1f77b4;stroke:#ffffff;stroke-width:0.48;" x="168.663479" xlink:href="#m506c7ce4d5" y="206.662006"/>
     <use style="fill:#1f77b4;stroke:#ffffff;stroke-width:0.48;" x="189.954449" xlink:href="#m506c7ce4d5" y="188.919531"/>
     <use style="fill:#1f77b4;stroke:#ffffff;stroke-width:0.48;" x="166.889231" xlink:href="#m506c7ce4d5" y="196.016521"/>
     <use style="fill:#1f77b4;stroke:#ffffff;stroke-width:0.48;" x="145.598261" xlink:href="#m506c7ce4d5" y="220.855986"/>
     <use style="fill:#1f77b4;stroke:#ffffff;stroke-width:0.48;" x="205.922676" xlink:href="#m506c7ce4d5" y="160.531572"/>
     <use style="fill:#1f77b4;stroke:#ffffff;stroke-width:0.48;" x="179.308964" xlink:href="#m506c7ce4d5" y="183.596789"/>
     <use style="fill:#1f77b4;stroke:#ffffff;stroke-width:0.48;" x="189.954449" xlink:href="#m506c7ce4d5" y="199.565016"/>
     <use style="fill:#1f77b4;stroke:#ffffff;stroke-width:0.48;" x="189.954449" xlink:href="#m506c7ce4d5" y="180.048294"/>
     <use style="fill:#1f77b4;stroke:#ffffff;stroke-width:0.48;" x="163.340736" xlink:href="#m506c7ce4d5" y="210.210501"/>
     <use style="fill:#1f77b4;stroke:#ffffff;stroke-width:0.48;" x="177.534716" xlink:href="#m506c7ce4d5" y="194.242274"/>
     <use style="fill:#1f77b4;stroke:#ffffff;stroke-width:0.48;" x="163.340736" xlink:href="#m506c7ce4d5" y="194.242274"/>
     <use style="fill:#1f77b4;stroke:#ffffff;stroke-width:0.48;" x="197.051438" xlink:href="#m506c7ce4d5" y="171.177057"/>
     <use style="fill:#1f77b4;stroke:#ffffff;stroke-width:0.48;" x="170.437726" xlink:href="#m506c7ce4d5" y="194.242274"/>
     <use style="fill:#1f77b4;stroke:#ffffff;stroke-width:0.48;" x="197.051438" xlink:href="#m506c7ce4d5" y="167.628562"/>
     <use style="fill:#1f77b4;stroke:#ffffff;stroke-width:0.48;" x="197.051438" xlink:href="#m506c7ce4d5" y="169.402809"/>
     <use style="fill:#1f77b4;stroke:#ffffff;stroke-width:0.48;" x="188.180201" xlink:href="#m506c7ce4d5" y="194.242274"/>
     <use style="fill:#1f77b4;stroke:#ffffff;stroke-width:0.48;" x="177.534716" xlink:href="#m506c7ce4d5" y="187.145284"/>
     <use style="fill:#1f77b4;stroke:#ffffff;stroke-width:0.48;" x="170.437726" xlink:href="#m506c7ce4d5" y="197.790769"/>
     <use style="fill:#1f77b4;stroke:#ffffff;stroke-width:0.48;" x="179.308964" xlink:href="#m506c7ce4d5" y="190.693779"/>
     <use style="fill:#1f77b4;stroke:#ffffff;stroke-width:0.48;" x="326.571505" xlink:href="#m506c7ce4d5" y="73.593445"/>
     <use style="fill:#1f77b4;stroke:#ffffff;stroke-width:0.48;" x="285.763813" xlink:href="#m506c7ce4d5" y="93.110167"/>
     <use style="fill:#1f77b4;stroke:#ffffff;stroke-width:0.48;" x="330.12" xlink:href="#m506c7ce4d5" y="78.916187"/>
     <use style="fill:#1f77b4;stroke:#ffffff;stroke-width:0.48;" x="184.631706" xlink:href="#m506c7ce4d5" y="204.887759"/>
     <use style="fill:#1f77b4;stroke:#ffffff;stroke-width:0.48;" x="165.114984" xlink:href="#m506c7ce4d5" y="222.630234"/>
     <use style="fill:#1f77b4;stroke:#ffffff;stroke-width:0.48;" x="191.728696" xlink:href="#m506c7ce4d5" y="187.145284"/>
     <use style="fill:#1f77b4;stroke:#ffffff;stroke-width:0.48;" x="195.277191" xlink:href="#m506c7ce4d5" y="183.596789"/>
     <use style="fill:#1f77b4;stroke:#ffffff;stroke-width:0.48;" x="186.405954" xlink:href="#m506c7ce4d5" y="188.919531"/>
     <use style="fill:#1f77b4;stroke:#ffffff;stroke-width:0.48;" x="193.502943" xlink:href="#m506c7ce4d5" y="187.145284"/>
     <use style="fill:#1f77b4;stroke:#ffffff;stroke-width:0.48;" x="134.952776" xlink:href="#m506c7ce4d5" y="233.275719"/>
     <use style="fill:#1f77b4;stroke:#ffffff;stroke-width:0.48;" x="250.278863" xlink:href="#m506c7ce4d5" y="155.208829"/>
     <use style="fill:#1f77b4;stroke:#ffffff;stroke-width:0.48;" x="175.760469" xlink:href="#m506c7ce4d5" y="196.016521"/>
     <use style="fill:#1f77b4;stroke:#ffffff;stroke-width:0.48;" x="191.728696" xlink:href="#m506c7ce4d5" y="197.790769"/>
     <use style="fill:#1f77b4;stroke:#ffffff;stroke-width:0.48;" x="189.954449" xlink:href="#m506c7ce4d5" y="188.919531"/>
     <use style="fill:#1f77b4;stroke:#ffffff;stroke-width:0.48;" x="152.695251" xlink:href="#m506c7ce4d5" y="211.984749"/>
    </g>
   </g>
   <g id="PolyCollection_2">
    <path clip-path="url(#p8957b2c889)" d="M 134.952776 232.692247 
L 134.952776 241.861797 
L 136.924163 240.559943 
L 138.895549 239.268813 
L 140.866935 237.986568 
L 142.838321 236.652326 
L 144.809707 235.350377 
L 146.781093 234.053065 
L 148.752479 232.815755 
L 150.723865 231.5697 
L 152.695251 230.310992 
L 154.666637 229.023422 
L 156.638023 227.743247 
L 158.60941 226.412312 
L 160.580796 225.085084 
L 162.552182 223.882156 
L 164.523568 222.594895 
L 166.494954 221.340853 
L 168.46634 220.124925 
L 170.437726 218.860649 
L 172.409112 217.638885 
L 174.380498 216.320327 
L 176.351884 215.090424 
L 178.323271 213.903281 
L 180.294657 212.644403 
L 182.266043 211.453078 
L 184.237429 210.364649 
L 186.208815 209.143618 
L 188.180201 207.92235 
L 190.151587 206.768637 
L 192.122973 205.57965 
L 194.094359 204.424111 
L 196.065745 203.249997 
L 198.037132 202.098845 
L 200.008518 200.966743 
L 201.979904 199.844113 
L 203.95129 198.710608 
L 205.922676 197.569572 
L 207.894062 196.460755 
L 209.865448 195.344663 
L 211.836834 194.23069 
L 213.80822 193.095765 
L 215.779606 191.981262 
L 217.750992 190.837778 
L 219.722379 189.744434 
L 221.693765 188.65138 
L 223.665151 187.567899 
L 225.636537 186.48603 
L 227.607923 185.390851 
L 229.579309 184.245729 
L 231.550695 183.156671 
L 233.522081 182.037047 
L 235.493467 180.919472 
L 237.464853 179.86593 
L 239.43624 178.812388 
L 241.407626 177.758847 
L 243.379012 176.68401 
L 245.350398 175.595345 
L 247.321784 174.504538 
L 249.29317 173.399824 
L 251.264556 172.29639 
L 253.235942 171.241463 
L 255.207328 170.154138 
L 257.178714 169.066322 
L 259.150101 167.977533 
L 261.121487 166.895504 
L 263.092873 165.820256 
L 265.064259 164.745808 
L 267.035645 163.697738 
L 269.007031 162.64045 
L 270.978417 161.592387 
L 272.949803 160.510179 
L 274.921189 159.4279 
L 276.892575 158.34442 
L 278.863961 157.277001 
L 280.835348 156.18503 
L 282.806734 155.115307 
L 284.77812 154.047983 
L 286.749506 152.980513 
L 288.720892 151.91214 
L 290.692278 150.843768 
L 292.663664 149.775085 
L 294.63505 148.706367 
L 296.606436 147.637563 
L 298.577822 146.568864 
L 300.549209 145.485752 
L 302.520595 144.429005 
L 304.491981 143.36475 
L 306.463367 142.296785 
L 308.434753 141.228412 
L 310.406139 140.149592 
L 312.377525 139.066271 
L 314.348911 137.98295 
L 316.320297 136.899629 
L 318.291683 135.816308 
L 320.26307 134.732987 
L 322.234456 133.650582 
L 324.205842 132.580792 
L 326.177228 131.506515 
L 328.148614 130.426279 
L 330.12 129.346042 
L 330.12 108.255738 
L 330.12 108.255738 
L 328.148614 109.585868 
L 326.177228 110.915997 
L 324.205842 112.255402 
L 322.234456 113.619515 
L 320.26307 114.933118 
L 318.291683 116.246721 
L 316.320297 117.562711 
L 314.348911 118.891534 
L 312.377525 120.220356 
L 310.406139 121.549207 
L 308.434753 122.878667 
L 306.463367 124.208127 
L 304.491981 125.537586 
L 302.520595 126.867046 
L 300.549209 128.196506 
L 298.577822 129.54483 
L 296.606436 130.875185 
L 294.63505 132.258962 
L 292.663664 133.63498 
L 290.692278 134.998363 
L 288.720892 136.361746 
L 286.749506 137.72513 
L 284.77812 139.088513 
L 282.806734 140.439205 
L 280.835348 141.744998 
L 278.863961 143.05079 
L 276.892575 144.356583 
L 274.921189 145.662376 
L 272.949803 146.968168 
L 270.978417 148.274914 
L 269.007031 149.612766 
L 267.035645 150.951945 
L 265.064259 152.290198 
L 263.092873 153.627974 
L 261.121487 154.896858 
L 259.150101 156.163254 
L 257.178714 157.464985 
L 255.207328 158.768671 
L 253.235942 160.121241 
L 251.264556 161.426509 
L 249.29317 162.755817 
L 247.321784 164.085018 
L 245.350398 165.413132 
L 243.379012 166.742232 
L 241.407626 168.045387 
L 239.43624 169.342545 
L 237.464853 170.651809 
L 235.493467 171.926688 
L 233.522081 173.201568 
L 231.550695 174.476447 
L 229.579309 175.751327 
L 227.607923 177.071092 
L 225.636537 178.373023 
L 223.665151 179.699066 
L 221.693765 180.976037 
L 219.722379 182.262624 
L 217.750992 183.580025 
L 215.779606 184.867757 
L 213.80822 186.125214 
L 211.836834 187.428296 
L 209.865448 188.72697 
L 207.894062 190.013769 
L 205.922676 191.234778 
L 203.95129 192.477765 
L 201.979904 193.729697 
L 200.008518 195.000765 
L 198.037132 196.230895 
L 196.065745 197.468545 
L 194.094359 198.694975 
L 192.122973 199.908896 
L 190.151587 201.164114 
L 188.180201 202.352497 
L 186.208815 203.520705 
L 184.237429 204.712313 
L 182.266043 205.92181 
L 180.294657 207.014684 
L 178.323271 208.186561 
L 176.351884 209.374945 
L 174.380498 210.552326 
L 172.409112 211.735487 
L 170.437726 212.805328 
L 168.46634 213.987802 
L 166.494954 215.14111 
L 164.523568 216.279826 
L 162.552182 217.4145 
L 160.580796 218.527047 
L 158.60941 219.666642 
L 156.638023 220.763687 
L 154.666637 221.87589 
L 152.695251 222.960512 
L 150.723865 224.073289 
L 148.752479 225.183754 
L 146.781093 226.268154 
L 144.809707 227.345406 
L 142.838321 228.43473 
L 140.866935 229.473424 
L 138.895549 230.541364 
L 136.924163 231.625566 
L 134.952776 232.692247 
z
" style="fill:#ff7f0e;fill-opacity:0.15;"/>
   </g>
   <g id="PathCollection_2">
    <defs>
     <path d="M 0 3 
C 0.795609 3 1.55874 2.683901 2.12132 2.12132 
C 2.683901 1.55874 3 0.795609 3 0 
C 3 -0.795609 2.683901 -1.55874 2.12132 -2.12132 
C 1.55874 -2.683901 0.795609 -3 0 -3 
C -0.795609 -3 -1.55874 -2.683901 -2.12132 -2.12132 
C -2.683901 -1.55874 -3 -0.795609 -3 0 
C -3 0.795609 -2.683901 1.55874 -2.12132 2.12132 
C -1.55874 2.683901 -0.795609 3 0 3 
z
" id="mbc8a2cc1cd" style="stroke:#ffffff;stroke-width:0.48;"/>
    </defs>
    <g clip-path="url(#p8957b2c889)">
     <use style="fill:#ff7f0e;stroke:#ffffff;stroke-width:0.48;" x="191.728696" xlink:href="#mbc8a2cc1cd" y="207.726555"/>
     <use style="fill:#ff7f0e;stroke:#ffffff;stroke-width:0.48;" x="236.084883" xlink:href="#mbc8a2cc1cd" y="178.096622"/>
     <use style="fill:#ff7f0e;stroke:#ffffff;stroke-width:0.48;" x="207.696923" xlink:href="#mbc8a2cc1cd" y="228.307826"/>
     <use style="fill:#ff7f0e;stroke:#ffffff;stroke-width:0.48;" x="152.695251" xlink:href="#mbc8a2cc1cd" y="229.194949"/>
     <use style="fill:#ff7f0e;stroke:#ffffff;stroke-width:0.48;" x="271.569833" xlink:href="#mbc8a2cc1cd" y="149.886087"/>
     <use style="fill:#ff7f0e;stroke:#ffffff;stroke-width:0.48;" x="307.054783" xlink:href="#mbc8a2cc1cd" y="129.127391"/>
     <use style="fill:#ff7f0e;stroke:#ffffff;stroke-width:0.48;" x="168.663479" xlink:href="#mbc8a2cc1cd" y="207.726555"/>
     <use style="fill:#ff7f0e;stroke:#ffffff;stroke-width:0.48;" x="259.150101" xlink:href="#mbc8a2cc1cd" y="144.563344"/>
     <use style="fill:#ff7f0e;stroke:#ffffff;stroke-width:0.48;" x="223.665151" xlink:href="#mbc8a2cc1cd" y="160.531572"/>
     <use style="fill:#ff7f0e;stroke:#ffffff;stroke-width:0.48;" x="186.405954" xlink:href="#mbc8a2cc1cd" y="217.839765"/>
     <use style="fill:#ff7f0e;stroke:#ffffff;stroke-width:0.48;" x="147.372509" xlink:href="#mbc8a2cc1cd" y="229.194949"/>
     <use style="fill:#ff7f0e;stroke:#ffffff;stroke-width:0.48;" x="152.695251" xlink:href="#mbc8a2cc1cd" y="231.501471"/>
     <use style="fill:#ff7f0e;stroke:#ffffff;stroke-width:0.48;" x="175.760469" xlink:href="#mbc8a2cc1cd" y="211.452474"/>
     <use style="fill:#ff7f0e;stroke:#ffffff;stroke-width:0.48;" x="182.857459" xlink:href="#mbc8a2cc1cd" y="217.662341"/>
     <use style="fill:#ff7f0e;stroke:#ffffff;stroke-width:0.48;" x="191.728696" xlink:href="#mbc8a2cc1cd" y="205.065184"/>
     <use style="fill:#ff7f0e;stroke:#ffffff;stroke-width:0.48;" x="221.890903" xlink:href="#mbc8a2cc1cd" y="188.919531"/>
     <use style="fill:#ff7f0e;stroke:#ffffff;stroke-width:0.48;" x="214.793913" xlink:href="#mbc8a2cc1cd" y="173.128729"/>
     <use style="fill:#ff7f0e;stroke:#ffffff;stroke-width:0.48;" x="168.663479" xlink:href="#mbc8a2cc1cd" y="218.726889"/>
     <use style="fill:#ff7f0e;stroke:#ffffff;stroke-width:0.48;" x="189.954449" xlink:href="#mbc8a2cc1cd" y="204.355485"/>
     <use style="fill:#ff7f0e;stroke:#ffffff;stroke-width:0.48;" x="166.889231" xlink:href="#mbc8a2cc1cd" y="203.113511"/>
     <use style="fill:#ff7f0e;stroke:#ffffff;stroke-width:0.48;" x="145.598261" xlink:href="#mbc8a2cc1cd" y="223.339933"/>
     <use style="fill:#ff7f0e;stroke:#ffffff;stroke-width:0.48;" x="205.922676" xlink:href="#mbc8a2cc1cd" y="187.677558"/>
     <use style="fill:#ff7f0e;stroke:#ffffff;stroke-width:0.48;" x="179.308964" xlink:href="#mbc8a2cc1cd" y="199.565016"/>
     <use style="fill:#ff7f0e;stroke:#ffffff;stroke-width:0.48;" x="189.954449" xlink:href="#mbc8a2cc1cd" y="215.178394"/>
     <use style="fill:#ff7f0e;stroke:#ffffff;stroke-width:0.48;" x="189.954449" xlink:href="#mbc8a2cc1cd" y="192.290602"/>
     <use style="fill:#ff7f0e;stroke:#ffffff;stroke-width:0.48;" x="163.340736" xlink:href="#mbc8a2cc1cd" y="226.711003"/>
     <use style="fill:#ff7f0e;stroke:#ffffff;stroke-width:0.48;" x="177.534716" xlink:href="#mbc8a2cc1cd" y="210.9202"/>
     <use style="fill:#ff7f0e;stroke:#ffffff;stroke-width:0.48;" x="163.340736" xlink:href="#mbc8a2cc1cd" y="196.903645"/>
     <use style="fill:#ff7f0e;stroke:#ffffff;stroke-width:0.48;" x="197.051438" xlink:href="#mbc8a2cc1cd" y="194.419699"/>
     <use style="fill:#ff7f0e;stroke:#ffffff;stroke-width:0.48;" x="170.437726" xlink:href="#mbc8a2cc1cd" y="210.210501"/>
     <use style="fill:#ff7f0e;stroke:#ffffff;stroke-width:0.48;" x="197.051438" xlink:href="#mbc8a2cc1cd" y="190.161505"/>
     <use style="fill:#ff7f0e;stroke:#ffffff;stroke-width:0.48;" x="197.051438" xlink:href="#mbc8a2cc1cd" y="188.919531"/>
     <use style="fill:#ff7f0e;stroke:#ffffff;stroke-width:0.48;" x="188.180201" xlink:href="#mbc8a2cc1cd" y="218.01719"/>
     <use style="fill:#ff7f0e;stroke:#ffffff;stroke-width:0.48;" x="177.534716" xlink:href="#mbc8a2cc1cd" y="206.662006"/>
     <use style="fill:#ff7f0e;stroke:#ffffff;stroke-width:0.48;" x="170.437726" xlink:href="#mbc8a2cc1cd" y="215.710668"/>
     <use style="fill:#ff7f0e;stroke:#ffffff;stroke-width:0.48;" x="179.308964" xlink:href="#mbc8a2cc1cd" y="206.484582"/>
     <use style="fill:#ff7f0e;stroke:#ffffff;stroke-width:0.48;" x="326.571505" xlink:href="#mbc8a2cc1cd" y="119.546455"/>
     <use style="fill:#ff7f0e;stroke:#ffffff;stroke-width:0.48;" x="285.763813" xlink:href="#mbc8a2cc1cd" y="137.28893"/>
     <use style="fill:#ff7f0e;stroke:#ffffff;stroke-width:0.48;" x="330.12" xlink:href="#mbc8a2cc1cd" y="136.401806"/>
     <use style="fill:#ff7f0e;stroke:#ffffff;stroke-width:0.48;" x="184.631706" xlink:href="#mbc8a2cc1cd" y="217.662341"/>
     <use style="fill:#ff7f0e;stroke:#ffffff;stroke-width:0.48;" x="165.114984" xlink:href="#mbc8a2cc1cd" y="232.033745"/>
     <use style="fill:#ff7f0e;stroke:#ffffff;stroke-width:0.48;" x="191.728696" xlink:href="#mbc8a2cc1cd" y="209.323377"/>
     <use style="fill:#ff7f0e;stroke:#ffffff;stroke-width:0.48;" x="195.277191" xlink:href="#mbc8a2cc1cd" y="204.887759"/>
     <use style="fill:#ff7f0e;stroke:#ffffff;stroke-width:0.48;" x="186.405954" xlink:href="#mbc8a2cc1cd" y="206.484582"/>
     <use style="fill:#ff7f0e;stroke:#ffffff;stroke-width:0.48;" x="193.502943" xlink:href="#mbc8a2cc1cd" y="214.468695"/>
     <use style="fill:#ff7f0e;stroke:#ffffff;stroke-width:0.48;" x="134.952776" xlink:href="#mbc8a2cc1cd" y="242.67923"/>
     <use style="fill:#ff7f0e;stroke:#ffffff;stroke-width:0.48;" x="250.278863" xlink:href="#mbc8a2cc1cd" y="180.048294"/>
     <use style="fill:#ff7f0e;stroke:#ffffff;stroke-width:0.48;" x="175.760469" xlink:href="#mbc8a2cc1cd" y="210.210501"/>
     <use style="fill:#ff7f0e;stroke:#ffffff;stroke-width:0.48;" x="191.728696" xlink:href="#mbc8a2cc1cd" y="215.710668"/>
     <use style="fill:#ff7f0e;stroke:#ffffff;stroke-width:0.48;" x="189.954449" xlink:href="#mbc8a2cc1cd" y="206.662006"/>
     <use style="fill:#ff7f0e;stroke:#ffffff;stroke-width:0.48;" x="152.695251" xlink:href="#mbc8a2cc1cd" y="227.952976"/>
    </g>
   </g>
   <g id="matplotlib.axis_1">
    <g id="xtick_1">
     <g id="line2d_2">
      <defs>
       <path d="M 0 0 
L 0 3.5 
" id="m98cdbd1b88" style="stroke:#000000;stroke-width:0.8;"/>
      </defs>
      <g>
       <use style="stroke:#000000;stroke-width:0.8;" x="143.824014" xlink:href="#m98cdbd1b88" y="252"/>
      </g>
     </g>
     <g id="text_1">
      <!-- 20 -->
      <g transform="translate(137.461514 266.598437)scale(0.1 -0.1)">
       <defs>
        <path d="M 19.1875 8.296875 
L 53.609375 8.296875 
L 53.609375 0 
L 7.328125 0 
L 7.328125 8.296875 
Q 12.9375 14.109375 22.625 23.890625 
Q 32.328125 33.6875 34.8125 36.53125 
Q 39.546875 41.84375 41.421875 45.53125 
Q 43.3125 49.21875 43.3125 52.78125 
Q 43.3125 58.59375 39.234375 62.25 
Q 35.15625 65.921875 28.609375 65.921875 
Q 23.96875 65.921875 18.8125 64.3125 
Q 13.671875 62.703125 7.8125 59.421875 
L 7.8125 69.390625 
Q 13.765625 71.78125 18.9375 73 
Q 24.125 74.21875 28.421875 74.21875 
Q 39.75 74.21875 46.484375 68.546875 
Q 53.21875 62.890625 53.21875 53.421875 
Q 53.21875 48.921875 51.53125 44.890625 
Q 49.859375 40.875 45.40625 35.40625 
Q 44.1875 33.984375 37.640625 27.21875 
Q 31.109375 20.453125 19.1875 8.296875 
z
" id="DejaVuSans-50"/>
        <path d="M 31.78125 66.40625 
Q 24.171875 66.40625 20.328125 58.90625 
Q 16.5 51.421875 16.5 36.375 
Q 16.5 21.390625 20.328125 13.890625 
Q 24.171875 6.390625 31.78125 6.390625 
Q 39.453125 6.390625 43.28125 13.890625 
Q 47.125 21.390625 47.125 36.375 
Q 47.125 51.421875 43.28125 58.90625 
Q 39.453125 66.40625 31.78125 66.40625 
z
M 31.78125 74.21875 
Q 44.046875 74.21875 50.515625 64.515625 
Q 56.984375 54.828125 56.984375 36.375 
Q 56.984375 17.96875 50.515625 8.265625 
Q 44.046875 -1.421875 31.78125 -1.421875 
Q 19.53125 -1.421875 13.0625 8.265625 
Q 6.59375 17.96875 6.59375 36.375 
Q 6.59375 54.828125 13.0625 64.515625 
Q 19.53125 74.21875 31.78125 74.21875 
z
" id="DejaVuSans-48"/>
       </defs>
       <use xlink:href="#DejaVuSans-50"/>
       <use x="63.623047" xlink:href="#DejaVuSans-48"/>
      </g>
     </g>
    </g>
    <g id="xtick_2">
     <g id="line2d_3">
      <g>
       <use style="stroke:#000000;stroke-width:0.8;" x="179.308964" xlink:href="#m98cdbd1b88" y="252"/>
      </g>
     </g>
     <g id="text_2">
      <!-- 40 -->
      <g transform="translate(172.946464 266.598437)scale(0.1 -0.1)">
       <defs>
        <path d="M 37.796875 64.3125 
L 12.890625 25.390625 
L 37.796875 25.390625 
z
M 35.203125 72.90625 
L 47.609375 72.90625 
L 47.609375 25.390625 
L 58.015625 25.390625 
L 58.015625 17.1875 
L 47.609375 17.1875 
L 47.609375 0 
L 37.796875 0 
L 37.796875 17.1875 
L 4.890625 17.1875 
L 4.890625 26.703125 
z
" id="DejaVuSans-52"/>
       </defs>
       <use xlink:href="#DejaVuSans-52"/>
       <use x="63.623047" xlink:href="#DejaVuSans-48"/>
      </g>
     </g>
    </g>
    <g id="xtick_3">
     <g id="line2d_4">
      <g>
       <use style="stroke:#000000;stroke-width:0.8;" x="214.793913" xlink:href="#m98cdbd1b88" y="252"/>
      </g>
     </g>
     <g id="text_3">
      <!-- 60 -->
      <g transform="translate(208.431413 266.598437)scale(0.1 -0.1)">
       <defs>
        <path d="M 33.015625 40.375 
Q 26.375 40.375 22.484375 35.828125 
Q 18.609375 31.296875 18.609375 23.390625 
Q 18.609375 15.53125 22.484375 10.953125 
Q 26.375 6.390625 33.015625 6.390625 
Q 39.65625 6.390625 43.53125 10.953125 
Q 47.40625 15.53125 47.40625 23.390625 
Q 47.40625 31.296875 43.53125 35.828125 
Q 39.65625 40.375 33.015625 40.375 
z
M 52.59375 71.296875 
L 52.59375 62.3125 
Q 48.875 64.0625 45.09375 64.984375 
Q 41.3125 65.921875 37.59375 65.921875 
Q 27.828125 65.921875 22.671875 59.328125 
Q 17.53125 52.734375 16.796875 39.40625 
Q 19.671875 43.65625 24.015625 45.921875 
Q 28.375 48.1875 33.59375 48.1875 
Q 44.578125 48.1875 50.953125 41.515625 
Q 57.328125 34.859375 57.328125 23.390625 
Q 57.328125 12.15625 50.6875 5.359375 
Q 44.046875 -1.421875 33.015625 -1.421875 
Q 20.359375 -1.421875 13.671875 8.265625 
Q 6.984375 17.96875 6.984375 36.375 
Q 6.984375 53.65625 15.1875 63.9375 
Q 23.390625 74.21875 37.203125 74.21875 
Q 40.921875 74.21875 44.703125 73.484375 
Q 48.484375 72.75 52.59375 71.296875 
z
" id="DejaVuSans-54"/>
       </defs>
       <use xlink:href="#DejaVuSans-54"/>
       <use x="63.623047" xlink:href="#DejaVuSans-48"/>
      </g>
     </g>
    </g>
    <g id="xtick_4">
     <g id="line2d_5">
      <g>
       <use style="stroke:#000000;stroke-width:0.8;" x="250.278863" xlink:href="#m98cdbd1b88" y="252"/>
      </g>
     </g>
     <g id="text_4">
      <!-- 80 -->
      <g transform="translate(243.916363 266.598437)scale(0.1 -0.1)">
       <defs>
        <path d="M 31.78125 34.625 
Q 24.75 34.625 20.71875 30.859375 
Q 16.703125 27.09375 16.703125 20.515625 
Q 16.703125 13.921875 20.71875 10.15625 
Q 24.75 6.390625 31.78125 6.390625 
Q 38.8125 6.390625 42.859375 10.171875 
Q 46.921875 13.96875 46.921875 20.515625 
Q 46.921875 27.09375 42.890625 30.859375 
Q 38.875 34.625 31.78125 34.625 
z
M 21.921875 38.8125 
Q 15.578125 40.375 12.03125 44.71875 
Q 8.5 49.078125 8.5 55.328125 
Q 8.5 64.0625 14.71875 69.140625 
Q 20.953125 74.21875 31.78125 74.21875 
Q 42.671875 74.21875 48.875 69.140625 
Q 55.078125 64.0625 55.078125 55.328125 
Q 55.078125 49.078125 51.53125 44.71875 
Q 48 40.375 41.703125 38.8125 
Q 48.828125 37.15625 52.796875 32.3125 
Q 56.78125 27.484375 56.78125 20.515625 
Q 56.78125 9.90625 50.3125 4.234375 
Q 43.84375 -1.421875 31.78125 -1.421875 
Q 19.734375 -1.421875 13.25 4.234375 
Q 6.78125 9.90625 6.78125 20.515625 
Q 6.78125 27.484375 10.78125 32.3125 
Q 14.796875 37.15625 21.921875 38.8125 
z
M 18.3125 54.390625 
Q 18.3125 48.734375 21.84375 45.5625 
Q 25.390625 42.390625 31.78125 42.390625 
Q 38.140625 42.390625 41.71875 45.5625 
Q 45.3125 48.734375 45.3125 54.390625 
Q 45.3125 60.0625 41.71875 63.234375 
Q 38.140625 66.40625 31.78125 66.40625 
Q 25.390625 66.40625 21.84375 63.234375 
Q 18.3125 60.0625 18.3125 54.390625 
z
" id="DejaVuSans-56"/>
       </defs>
       <use xlink:href="#DejaVuSans-56"/>
       <use x="63.623047" xlink:href="#DejaVuSans-48"/>
      </g>
     </g>
    </g>
    <g id="xtick_5">
     <g id="line2d_6">
      <g>
       <use style="stroke:#000000;stroke-width:0.8;" x="285.763813" xlink:href="#m98cdbd1b88" y="252"/>
      </g>
     </g>
     <g id="text_5">
      <!-- 100 -->
      <g transform="translate(276.220063 266.598437)scale(0.1 -0.1)">
       <defs>
        <path d="M 12.40625 8.296875 
L 28.515625 8.296875 
L 28.515625 63.921875 
L 10.984375 60.40625 
L 10.984375 69.390625 
L 28.421875 72.90625 
L 38.28125 72.90625 
L 38.28125 8.296875 
L 54.390625 8.296875 
L 54.390625 0 
L 12.40625 0 
z
" id="DejaVuSans-49"/>
       </defs>
       <use xlink:href="#DejaVuSans-49"/>
       <use x="63.623047" xlink:href="#DejaVuSans-48"/>
       <use x="127.246094" xlink:href="#DejaVuSans-48"/>
      </g>
     </g>
    </g>
    <g id="xtick_6">
     <g id="line2d_7">
      <g>
       <use style="stroke:#000000;stroke-width:0.8;" x="321.248763" xlink:href="#m98cdbd1b88" y="252"/>
      </g>
     </g>
     <g id="text_6">
      <!-- 120 -->
      <g transform="translate(311.705013 266.598437)scale(0.1 -0.1)">
       <use xlink:href="#DejaVuSans-49"/>
       <use x="63.623047" xlink:href="#DejaVuSans-50"/>
       <use x="127.246094" xlink:href="#DejaVuSans-48"/>
      </g>
     </g>
    </g>
    <g id="text_7">
     <!-- Measured coral height [cm] -->
     <g transform="translate(152.435156 280.276563)scale(0.1 -0.1)">
      <defs>
       <path d="M 9.8125 72.90625 
L 24.515625 72.90625 
L 43.109375 23.296875 
L 61.8125 72.90625 
L 76.515625 72.90625 
L 76.515625 0 
L 66.890625 0 
L 66.890625 64.015625 
L 48.09375 14.015625 
L 38.1875 14.015625 
L 19.390625 64.015625 
L 19.390625 0 
L 9.8125 0 
z
" id="DejaVuSans-77"/>
       <path d="M 56.203125 29.59375 
L 56.203125 25.203125 
L 14.890625 25.203125 
Q 15.484375 15.921875 20.484375 11.0625 
Q 25.484375 6.203125 34.421875 6.203125 
Q 39.59375 6.203125 44.453125 7.46875 
Q 49.3125 8.734375 54.109375 11.28125 
L 54.109375 2.78125 
Q 49.265625 0.734375 44.1875 -0.34375 
Q 39.109375 -1.421875 33.890625 -1.421875 
Q 20.796875 -1.421875 13.15625 6.1875 
Q 5.515625 13.8125 5.515625 26.8125 
Q 5.515625 40.234375 12.765625 48.109375 
Q 20.015625 56 32.328125 56 
Q 43.359375 56 49.78125 48.890625 
Q 56.203125 41.796875 56.203125 29.59375 
z
M 47.21875 32.234375 
Q 47.125 39.59375 43.09375 43.984375 
Q 39.0625 48.390625 32.421875 48.390625 
Q 24.90625 48.390625 20.390625 44.140625 
Q 15.875 39.890625 15.1875 32.171875 
z
" id="DejaVuSans-101"/>
       <path d="M 34.28125 27.484375 
Q 23.390625 27.484375 19.1875 25 
Q 14.984375 22.515625 14.984375 16.5 
Q 14.984375 11.71875 18.140625 8.90625 
Q 21.296875 6.109375 26.703125 6.109375 
Q 34.1875 6.109375 38.703125 11.40625 
Q 43.21875 16.703125 43.21875 25.484375 
L 43.21875 27.484375 
z
M 52.203125 31.203125 
L 52.203125 0 
L 43.21875 0 
L 43.21875 8.296875 
Q 40.140625 3.328125 35.546875 0.953125 
Q 30.953125 -1.421875 24.3125 -1.421875 
Q 15.921875 -1.421875 10.953125 3.296875 
Q 6 8.015625 6 15.921875 
Q 6 25.140625 12.171875 29.828125 
Q 18.359375 34.515625 30.609375 34.515625 
L 43.21875 34.515625 
L 43.21875 35.40625 
Q 43.21875 41.609375 39.140625 45 
Q 35.0625 48.390625 27.6875 48.390625 
Q 23 48.390625 18.546875 47.265625 
Q 14.109375 46.140625 10.015625 43.890625 
L 10.015625 52.203125 
Q 14.9375 54.109375 19.578125 55.046875 
Q 24.21875 56 28.609375 56 
Q 40.484375 56 46.34375 49.84375 
Q 52.203125 43.703125 52.203125 31.203125 
z
" id="DejaVuSans-97"/>
       <path d="M 44.28125 53.078125 
L 44.28125 44.578125 
Q 40.484375 46.53125 36.375 47.5 
Q 32.28125 48.484375 27.875 48.484375 
Q 21.1875 48.484375 17.84375 46.4375 
Q 14.5 44.390625 14.5 40.28125 
Q 14.5 37.15625 16.890625 35.375 
Q 19.28125 33.59375 26.515625 31.984375 
L 29.59375 31.296875 
Q 39.15625 29.25 43.1875 25.515625 
Q 47.21875 21.78125 47.21875 15.09375 
Q 47.21875 7.46875 41.1875 3.015625 
Q 35.15625 -1.421875 24.609375 -1.421875 
Q 20.21875 -1.421875 15.453125 -0.5625 
Q 10.6875 0.296875 5.421875 2 
L 5.421875 11.28125 
Q 10.40625 8.6875 15.234375 7.390625 
Q 20.0625 6.109375 24.8125 6.109375 
Q 31.15625 6.109375 34.5625 8.28125 
Q 37.984375 10.453125 37.984375 14.40625 
Q 37.984375 18.0625 35.515625 20.015625 
Q 33.0625 21.96875 24.703125 23.78125 
L 21.578125 24.515625 
Q 13.234375 26.265625 9.515625 29.90625 
Q 5.8125 33.546875 5.8125 39.890625 
Q 5.8125 47.609375 11.28125 51.796875 
Q 16.75 56 26.8125 56 
Q 31.78125 56 36.171875 55.265625 
Q 40.578125 54.546875 44.28125 53.078125 
z
" id="DejaVuSans-115"/>
       <path d="M 8.5 21.578125 
L 8.5 54.6875 
L 17.484375 54.6875 
L 17.484375 21.921875 
Q 17.484375 14.15625 20.5 10.265625 
Q 23.53125 6.390625 29.59375 6.390625 
Q 36.859375 6.390625 41.078125 11.03125 
Q 45.3125 15.671875 45.3125 23.6875 
L 45.3125 54.6875 
L 54.296875 54.6875 
L 54.296875 0 
L 45.3125 0 
L 45.3125 8.40625 
Q 42.046875 3.421875 37.71875 1 
Q 33.40625 -1.421875 27.6875 -1.421875 
Q 18.265625 -1.421875 13.375 4.4375 
Q 8.5 10.296875 8.5 21.578125 
z
M 31.109375 56 
z
" id="DejaVuSans-117"/>
       <path d="M 41.109375 46.296875 
Q 39.59375 47.171875 37.8125 47.578125 
Q 36.03125 48 33.890625 48 
Q 26.265625 48 22.1875 43.046875 
Q 18.109375 38.09375 18.109375 28.8125 
L 18.109375 0 
L 9.078125 0 
L 9.078125 54.6875 
L 18.109375 54.6875 
L 18.109375 46.1875 
Q 20.953125 51.171875 25.484375 53.578125 
Q 30.03125 56 36.53125 56 
Q 37.453125 56 38.578125 55.875 
Q 39.703125 55.765625 41.0625 55.515625 
z
" id="DejaVuSans-114"/>
       <path d="M 45.40625 46.390625 
L 45.40625 75.984375 
L 54.390625 75.984375 
L 54.390625 0 
L 45.40625 0 
L 45.40625 8.203125 
Q 42.578125 3.328125 38.25 0.953125 
Q 33.9375 -1.421875 27.875 -1.421875 
Q 17.96875 -1.421875 11.734375 6.484375 
Q 5.515625 14.40625 5.515625 27.296875 
Q 5.515625 40.1875 11.734375 48.09375 
Q 17.96875 56 27.875 56 
Q 33.9375 56 38.25 53.625 
Q 42.578125 51.265625 45.40625 46.390625 
z
M 14.796875 27.296875 
Q 14.796875 17.390625 18.875 11.75 
Q 22.953125 6.109375 30.078125 6.109375 
Q 37.203125 6.109375 41.296875 11.75 
Q 45.40625 17.390625 45.40625 27.296875 
Q 45.40625 37.203125 41.296875 42.84375 
Q 37.203125 48.484375 30.078125 48.484375 
Q 22.953125 48.484375 18.875 42.84375 
Q 14.796875 37.203125 14.796875 27.296875 
z
" id="DejaVuSans-100"/>
       <path id="DejaVuSans-32"/>
       <path d="M 48.78125 52.59375 
L 48.78125 44.1875 
Q 44.96875 46.296875 41.140625 47.34375 
Q 37.3125 48.390625 33.40625 48.390625 
Q 24.65625 48.390625 19.8125 42.84375 
Q 14.984375 37.3125 14.984375 27.296875 
Q 14.984375 17.28125 19.8125 11.734375 
Q 24.65625 6.203125 33.40625 6.203125 
Q 37.3125 6.203125 41.140625 7.25 
Q 44.96875 8.296875 48.78125 10.40625 
L 48.78125 2.09375 
Q 45.015625 0.34375 40.984375 -0.53125 
Q 36.96875 -1.421875 32.421875 -1.421875 
Q 20.0625 -1.421875 12.78125 6.34375 
Q 5.515625 14.109375 5.515625 27.296875 
Q 5.515625 40.671875 12.859375 48.328125 
Q 20.21875 56 33.015625 56 
Q 37.15625 56 41.109375 55.140625 
Q 45.0625 54.296875 48.78125 52.59375 
z
" id="DejaVuSans-99"/>
       <path d="M 30.609375 48.390625 
Q 23.390625 48.390625 19.1875 42.75 
Q 14.984375 37.109375 14.984375 27.296875 
Q 14.984375 17.484375 19.15625 11.84375 
Q 23.34375 6.203125 30.609375 6.203125 
Q 37.796875 6.203125 41.984375 11.859375 
Q 46.1875 17.53125 46.1875 27.296875 
Q 46.1875 37.015625 41.984375 42.703125 
Q 37.796875 48.390625 30.609375 48.390625 
z
M 30.609375 56 
Q 42.328125 56 49.015625 48.375 
Q 55.71875 40.765625 55.71875 27.296875 
Q 55.71875 13.875 49.015625 6.21875 
Q 42.328125 -1.421875 30.609375 -1.421875 
Q 18.84375 -1.421875 12.171875 6.21875 
Q 5.515625 13.875 5.515625 27.296875 
Q 5.515625 40.765625 12.171875 48.375 
Q 18.84375 56 30.609375 56 
z
" id="DejaVuSans-111"/>
       <path d="M 9.421875 75.984375 
L 18.40625 75.984375 
L 18.40625 0 
L 9.421875 0 
z
" id="DejaVuSans-108"/>
       <path d="M 54.890625 33.015625 
L 54.890625 0 
L 45.90625 0 
L 45.90625 32.71875 
Q 45.90625 40.484375 42.875 44.328125 
Q 39.84375 48.1875 33.796875 48.1875 
Q 26.515625 48.1875 22.3125 43.546875 
Q 18.109375 38.921875 18.109375 30.90625 
L 18.109375 0 
L 9.078125 0 
L 9.078125 75.984375 
L 18.109375 75.984375 
L 18.109375 46.1875 
Q 21.34375 51.125 25.703125 53.5625 
Q 30.078125 56 35.796875 56 
Q 45.21875 56 50.046875 50.171875 
Q 54.890625 44.34375 54.890625 33.015625 
z
" id="DejaVuSans-104"/>
       <path d="M 9.421875 54.6875 
L 18.40625 54.6875 
L 18.40625 0 
L 9.421875 0 
z
M 9.421875 75.984375 
L 18.40625 75.984375 
L 18.40625 64.59375 
L 9.421875 64.59375 
z
" id="DejaVuSans-105"/>
       <path d="M 45.40625 27.984375 
Q 45.40625 37.75 41.375 43.109375 
Q 37.359375 48.484375 30.078125 48.484375 
Q 22.859375 48.484375 18.828125 43.109375 
Q 14.796875 37.75 14.796875 27.984375 
Q 14.796875 18.265625 18.828125 12.890625 
Q 22.859375 7.515625 30.078125 7.515625 
Q 37.359375 7.515625 41.375 12.890625 
Q 45.40625 18.265625 45.40625 27.984375 
z
M 54.390625 6.78125 
Q 54.390625 -7.171875 48.1875 -13.984375 
Q 42 -20.796875 29.203125 -20.796875 
Q 24.46875 -20.796875 20.265625 -20.09375 
Q 16.0625 -19.390625 12.109375 -17.921875 
L 12.109375 -9.1875 
Q 16.0625 -11.328125 19.921875 -12.34375 
Q 23.78125 -13.375 27.78125 -13.375 
Q 36.625 -13.375 41.015625 -8.765625 
Q 45.40625 -4.15625 45.40625 5.171875 
L 45.40625 9.625 
Q 42.625 4.78125 38.28125 2.390625 
Q 33.9375 0 27.875 0 
Q 17.828125 0 11.671875 7.65625 
Q 5.515625 15.328125 5.515625 27.984375 
Q 5.515625 40.671875 11.671875 48.328125 
Q 17.828125 56 27.875 56 
Q 33.9375 56 38.28125 53.609375 
Q 42.625 51.21875 45.40625 46.390625 
L 45.40625 54.6875 
L 54.390625 54.6875 
z
" id="DejaVuSans-103"/>
       <path d="M 18.3125 70.21875 
L 18.3125 54.6875 
L 36.8125 54.6875 
L 36.8125 47.703125 
L 18.3125 47.703125 
L 18.3125 18.015625 
Q 18.3125 11.328125 20.140625 9.421875 
Q 21.96875 7.515625 27.59375 7.515625 
L 36.8125 7.515625 
L 36.8125 0 
L 27.59375 0 
Q 17.1875 0 13.234375 3.875 
Q 9.28125 7.765625 9.28125 18.015625 
L 9.28125 47.703125 
L 2.6875 47.703125 
L 2.6875 54.6875 
L 9.28125 54.6875 
L 9.28125 70.21875 
z
" id="DejaVuSans-116"/>
       <path d="M 8.59375 75.984375 
L 29.296875 75.984375 
L 29.296875 69 
L 17.578125 69 
L 17.578125 -6.203125 
L 29.296875 -6.203125 
L 29.296875 -13.1875 
L 8.59375 -13.1875 
z
" id="DejaVuSans-91"/>
       <path d="M 52 44.1875 
Q 55.375 50.25 60.0625 53.125 
Q 64.75 56 71.09375 56 
Q 79.640625 56 84.28125 50.015625 
Q 88.921875 44.046875 88.921875 33.015625 
L 88.921875 0 
L 79.890625 0 
L 79.890625 32.71875 
Q 79.890625 40.578125 77.09375 44.375 
Q 74.3125 48.1875 68.609375 48.1875 
Q 61.625 48.1875 57.5625 43.546875 
Q 53.515625 38.921875 53.515625 30.90625 
L 53.515625 0 
L 44.484375 0 
L 44.484375 32.71875 
Q 44.484375 40.625 41.703125 44.40625 
Q 38.921875 48.1875 33.109375 48.1875 
Q 26.21875 48.1875 22.15625 43.53125 
Q 18.109375 38.875 18.109375 30.90625 
L 18.109375 0 
L 9.078125 0 
L 9.078125 54.6875 
L 18.109375 54.6875 
L 18.109375 46.1875 
Q 21.1875 51.21875 25.484375 53.609375 
Q 29.78125 56 35.6875 56 
Q 41.65625 56 45.828125 52.96875 
Q 50 49.953125 52 44.1875 
z
" id="DejaVuSans-109"/>
       <path d="M 30.421875 75.984375 
L 30.421875 -13.1875 
L 9.71875 -13.1875 
L 9.71875 -6.203125 
L 21.390625 -6.203125 
L 21.390625 69 
L 9.71875 69 
L 9.71875 75.984375 
z
" id="DejaVuSans-93"/>
      </defs>
      <use xlink:href="#DejaVuSans-77"/>
      <use x="86.279297" xlink:href="#DejaVuSans-101"/>
      <use x="147.802734" xlink:href="#DejaVuSans-97"/>
      <use x="209.082031" xlink:href="#DejaVuSans-115"/>
      <use x="261.181641" xlink:href="#DejaVuSans-117"/>
      <use x="324.560547" xlink:href="#DejaVuSans-114"/>
      <use x="363.423828" xlink:href="#DejaVuSans-101"/>
      <use x="424.947266" xlink:href="#DejaVuSans-100"/>
      <use x="488.423828" xlink:href="#DejaVuSans-32"/>
      <use x="520.210938" xlink:href="#DejaVuSans-99"/>
      <use x="575.191406" xlink:href="#DejaVuSans-111"/>
      <use x="636.373047" xlink:href="#DejaVuSans-114"/>
      <use x="677.486328" xlink:href="#DejaVuSans-97"/>
      <use x="738.765625" xlink:href="#DejaVuSans-108"/>
      <use x="766.548828" xlink:href="#DejaVuSans-32"/>
      <use x="798.335938" xlink:href="#DejaVuSans-104"/>
      <use x="861.714844" xlink:href="#DejaVuSans-101"/>
      <use x="923.238281" xlink:href="#DejaVuSans-105"/>
      <use x="951.021484" xlink:href="#DejaVuSans-103"/>
      <use x="1014.498047" xlink:href="#DejaVuSans-104"/>
      <use x="1077.876953" xlink:href="#DejaVuSans-116"/>
      <use x="1117.085938" xlink:href="#DejaVuSans-32"/>
      <use x="1148.873047" xlink:href="#DejaVuSans-91"/>
      <use x="1187.886719" xlink:href="#DejaVuSans-99"/>
      <use x="1242.867188" xlink:href="#DejaVuSans-109"/>
      <use x="1340.279297" xlink:href="#DejaVuSans-93"/>
     </g>
    </g>
   </g>
   <g id="matplotlib.axis_2">
    <g id="ytick_1">
     <g id="line2d_8">
      <defs>
       <path d="M 0 0 
L -3.5 0 
" id="mae54b33ac3" style="stroke:#000000;stroke-width:0.8;"/>
      </defs>
      <g>
       <use style="stroke:#000000;stroke-width:0.8;" x="112.68" xlink:href="#mae54b33ac3" y="220.855986"/>
      </g>
     </g>
     <g id="text_8">
      <!-- 20 -->
      <g transform="translate(92.955 224.655205)scale(0.1 -0.1)">
       <use xlink:href="#DejaVuSans-50"/>
       <use x="63.623047" xlink:href="#DejaVuSans-48"/>
      </g>
     </g>
    </g>
    <g id="ytick_2">
     <g id="line2d_9">
      <g>
       <use style="stroke:#000000;stroke-width:0.8;" x="112.68" xlink:href="#mae54b33ac3" y="185.371036"/>
      </g>
     </g>
     <g id="text_9">
      <!-- 40 -->
      <g transform="translate(92.955 189.170255)scale(0.1 -0.1)">
       <use xlink:href="#DejaVuSans-52"/>
       <use x="63.623047" xlink:href="#DejaVuSans-48"/>
      </g>
     </g>
    </g>
    <g id="ytick_3">
     <g id="line2d_10">
      <g>
       <use style="stroke:#000000;stroke-width:0.8;" x="112.68" xlink:href="#mae54b33ac3" y="149.886087"/>
      </g>
     </g>
     <g id="text_10">
      <!-- 60 -->
      <g transform="translate(92.955 153.685305)scale(0.1 -0.1)">
       <use xlink:href="#DejaVuSans-54"/>
       <use x="63.623047" xlink:href="#DejaVuSans-48"/>
      </g>
     </g>
    </g>
    <g id="ytick_4">
     <g id="line2d_11">
      <g>
       <use style="stroke:#000000;stroke-width:0.8;" x="112.68" xlink:href="#mae54b33ac3" y="114.401137"/>
      </g>
     </g>
     <g id="text_11">
      <!-- 80 -->
      <g transform="translate(92.955 118.200356)scale(0.1 -0.1)">
       <use xlink:href="#DejaVuSans-56"/>
       <use x="63.623047" xlink:href="#DejaVuSans-48"/>
      </g>
     </g>
    </g>
    <g id="ytick_5">
     <g id="line2d_12">
      <g>
       <use style="stroke:#000000;stroke-width:0.8;" x="112.68" xlink:href="#mae54b33ac3" y="78.916187"/>
      </g>
     </g>
     <g id="text_12">
      <!-- 100 -->
      <g transform="translate(86.5925 82.715406)scale(0.1 -0.1)">
       <use xlink:href="#DejaVuSans-49"/>
       <use x="63.623047" xlink:href="#DejaVuSans-48"/>
       <use x="127.246094" xlink:href="#DejaVuSans-48"/>
      </g>
     </g>
    </g>
    <g id="ytick_6">
     <g id="line2d_13">
      <g>
       <use style="stroke:#000000;stroke-width:0.8;" x="112.68" xlink:href="#mae54b33ac3" y="43.431237"/>
      </g>
     </g>
     <g id="text_13">
      <!-- 120 -->
      <g transform="translate(86.5925 47.230456)scale(0.1 -0.1)">
       <use xlink:href="#DejaVuSans-49"/>
       <use x="63.623047" xlink:href="#DejaVuSans-50"/>
       <use x="127.246094" xlink:href="#DejaVuSans-48"/>
      </g>
     </g>
    </g>
    <g id="text_14">
     <!-- DEM-derived coral height [cm] -->
     <g transform="translate(80.512812 219.855781)rotate(-90)scale(0.1 -0.1)">
      <defs>
       <path d="M 19.671875 64.796875 
L 19.671875 8.109375 
L 31.59375 8.109375 
Q 46.6875 8.109375 53.6875 14.9375 
Q 60.6875 21.78125 60.6875 36.53125 
Q 60.6875 51.171875 53.6875 57.984375 
Q 46.6875 64.796875 31.59375 64.796875 
z
M 9.8125 72.90625 
L 30.078125 72.90625 
Q 51.265625 72.90625 61.171875 64.09375 
Q 71.09375 55.28125 71.09375 36.53125 
Q 71.09375 17.671875 61.125 8.828125 
Q 51.171875 0 30.078125 0 
L 9.8125 0 
z
" id="DejaVuSans-68"/>
       <path d="M 9.8125 72.90625 
L 55.90625 72.90625 
L 55.90625 64.59375 
L 19.671875 64.59375 
L 19.671875 43.015625 
L 54.390625 43.015625 
L 54.390625 34.71875 
L 19.671875 34.71875 
L 19.671875 8.296875 
L 56.78125 8.296875 
L 56.78125 0 
L 9.8125 0 
z
" id="DejaVuSans-69"/>
       <path d="M 4.890625 31.390625 
L 31.203125 31.390625 
L 31.203125 23.390625 
L 4.890625 23.390625 
z
" id="DejaVuSans-45"/>
       <path d="M 2.984375 54.6875 
L 12.5 54.6875 
L 29.59375 8.796875 
L 46.6875 54.6875 
L 56.203125 54.6875 
L 35.6875 0 
L 23.484375 0 
z
" id="DejaVuSans-118"/>
      </defs>
      <use xlink:href="#DejaVuSans-68"/>
      <use x="77.001953" xlink:href="#DejaVuSans-69"/>
      <use x="140.185547" xlink:href="#DejaVuSans-77"/>
      <use x="226.464844" xlink:href="#DejaVuSans-45"/>
      <use x="262.548828" xlink:href="#DejaVuSans-100"/>
      <use x="326.025391" xlink:href="#DejaVuSans-101"/>
      <use x="387.548828" xlink:href="#DejaVuSans-114"/>
      <use x="428.662109" xlink:href="#DejaVuSans-105"/>
      <use x="456.445312" xlink:href="#DejaVuSans-118"/>
      <use x="515.625" xlink:href="#DejaVuSans-101"/>
      <use x="577.148438" xlink:href="#DejaVuSans-100"/>
      <use x="640.625" xlink:href="#DejaVuSans-32"/>
      <use x="672.412109" xlink:href="#DejaVuSans-99"/>
      <use x="727.392578" xlink:href="#DejaVuSans-111"/>
      <use x="788.574219" xlink:href="#DejaVuSans-114"/>
      <use x="829.6875" xlink:href="#DejaVuSans-97"/>
      <use x="890.966797" xlink:href="#DejaVuSans-108"/>
      <use x="918.75" xlink:href="#DejaVuSans-32"/>
      <use x="950.537109" xlink:href="#DejaVuSans-104"/>
      <use x="1013.916016" xlink:href="#DejaVuSans-101"/>
      <use x="1075.439453" xlink:href="#DejaVuSans-105"/>
      <use x="1103.222656" xlink:href="#DejaVuSans-103"/>
      <use x="1166.699219" xlink:href="#DejaVuSans-104"/>
      <use x="1230.078125" xlink:href="#DejaVuSans-116"/>
      <use x="1269.287109" xlink:href="#DejaVuSans-32"/>
      <use x="1301.074219" xlink:href="#DejaVuSans-91"/>
      <use x="1340.087891" xlink:href="#DejaVuSans-99"/>
      <use x="1395.068359" xlink:href="#DejaVuSans-109"/>
      <use x="1492.480469" xlink:href="#DejaVuSans-93"/>
     </g>
    </g>
   </g>
   <g id="line2d_14">
    <path clip-path="url(#p8957b2c889)" d="M 134.952776 231.850631 
L 136.924163 230.194759 
L 138.895549 228.538886 
L 140.866935 226.883014 
L 142.838321 225.227141 
L 144.809707 223.571269 
L 146.781093 221.915396 
L 148.752479 220.259524 
L 150.723865 218.603651 
L 152.695251 216.947779 
L 154.666637 215.291907 
L 156.638023 213.636034 
L 158.60941 211.980162 
L 160.580796 210.324289 
L 162.552182 208.668417 
L 164.523568 207.012544 
L 166.494954 205.356672 
L 168.46634 203.700799 
L 170.437726 202.044927 
L 172.409112 200.389054 
L 174.380498 198.733182 
L 176.351884 197.077309 
L 178.323271 195.421437 
L 180.294657 193.765564 
L 182.266043 192.109692 
L 184.237429 190.453819 
L 186.208815 188.797947 
L 188.180201 187.142074 
L 190.151587 185.486202 
L 192.122973 183.83033 
L 194.094359 182.174457 
L 196.065745 180.518585 
L 198.037132 178.862712 
L 200.008518 177.20684 
L 201.979904 175.550967 
L 203.95129 173.895095 
L 205.922676 172.239222 
L 207.894062 170.58335 
L 209.865448 168.927477 
L 211.836834 167.271605 
L 213.80822 165.615732 
L 215.779606 163.95986 
L 217.750992 162.303987 
L 219.722379 160.648115 
L 221.693765 158.992242 
L 223.665151 157.33637 
L 225.636537 155.680497 
L 227.607923 154.024625 
L 229.579309 152.368753 
L 231.550695 150.71288 
L 233.522081 149.057008 
L 235.493467 147.401135 
L 237.464853 145.745263 
L 239.43624 144.08939 
L 241.407626 142.433518 
L 243.379012 140.777645 
L 245.350398 139.121773 
L 247.321784 137.4659 
L 249.29317 135.810028 
L 251.264556 134.154155 
L 253.235942 132.498283 
L 255.207328 130.84241 
L 257.178714 129.186538 
L 259.150101 127.530665 
L 261.121487 125.874793 
L 263.092873 124.21892 
L 265.064259 122.563048 
L 267.035645 120.907176 
L 269.007031 119.251303 
L 270.978417 117.595431 
L 272.949803 115.939558 
L 274.921189 114.283686 
L 276.892575 112.627813 
L 278.863961 110.971941 
L 280.835348 109.316068 
L 282.806734 107.660196 
L 284.77812 106.004323 
L 286.749506 104.348451 
L 288.720892 102.692578 
L 290.692278 101.036706 
L 292.663664 99.380833 
L 294.63505 97.724961 
L 296.606436 96.069088 
L 298.577822 94.413216 
L 300.549209 92.757343 
L 302.520595 91.101471 
L 304.491981 89.445598 
L 306.463367 87.789726 
L 308.434753 86.133854 
L 310.406139 84.477981 
L 312.377525 82.822109 
L 314.348911 81.166236 
L 316.320297 79.510364 
L 318.291683 77.854491 
L 320.26307 76.198619 
L 322.234456 74.542746 
L 324.205842 72.886874 
L 326.177228 71.231001 
L 328.148614 69.575129 
L 330.12 67.919256 
" style="fill:none;stroke:#1f77b4;stroke-linecap:square;stroke-width:2.25;"/>
   </g>
   <g id="line2d_15">
    <path clip-path="url(#p8957b2c889)" d="M 134.952776 237.345603 
L 136.924163 236.15333 
L 138.895549 234.961057 
L 140.866935 233.768784 
L 142.838321 232.57651 
L 144.809707 231.384237 
L 146.781093 230.191964 
L 148.752479 228.999691 
L 150.723865 227.807418 
L 152.695251 226.615145 
L 154.666637 225.422872 
L 156.638023 224.230599 
L 158.60941 223.038326 
L 160.580796 221.846052 
L 162.552182 220.653779 
L 164.523568 219.461506 
L 166.494954 218.269233 
L 168.46634 217.07696 
L 170.437726 215.884687 
L 172.409112 214.692414 
L 174.380498 213.500141 
L 176.351884 212.307868 
L 178.323271 211.115594 
L 180.294657 209.923321 
L 182.266043 208.731048 
L 184.237429 207.538775 
L 186.208815 206.346502 
L 188.180201 205.154229 
L 190.151587 203.961956 
L 192.122973 202.769683 
L 194.094359 201.57741 
L 196.065745 200.385136 
L 198.037132 199.192863 
L 200.008518 198.00059 
L 201.979904 196.808317 
L 203.95129 195.616044 
L 205.922676 194.423771 
L 207.894062 193.231498 
L 209.865448 192.039225 
L 211.836834 190.846952 
L 213.80822 189.654678 
L 215.779606 188.462405 
L 217.750992 187.270132 
L 219.722379 186.077859 
L 221.693765 184.885586 
L 223.665151 183.693313 
L 225.636537 182.50104 
L 227.607923 181.308767 
L 229.579309 180.116494 
L 231.550695 178.92422 
L 233.522081 177.731947 
L 235.493467 176.539674 
L 237.464853 175.347401 
L 239.43624 174.155128 
L 241.407626 172.962855 
L 243.379012 171.770582 
L 245.350398 170.578309 
L 247.321784 169.386036 
L 249.29317 168.193762 
L 251.264556 167.001489 
L 253.235942 165.809216 
L 255.207328 164.616943 
L 257.178714 163.42467 
L 259.150101 162.232397 
L 261.121487 161.040124 
L 263.092873 159.847851 
L 265.064259 158.655578 
L 267.035645 157.463304 
L 269.007031 156.271031 
L 270.978417 155.078758 
L 272.949803 153.886485 
L 274.921189 152.694212 
L 276.892575 151.501939 
L 278.863961 150.309666 
L 280.835348 149.117393 
L 282.806734 147.92512 
L 284.77812 146.732846 
L 286.749506 145.540573 
L 288.720892 144.3483 
L 290.692278 143.156027 
L 292.663664 141.963754 
L 294.63505 140.771481 
L 296.606436 139.579208 
L 298.577822 138.386935 
L 300.549209 137.194662 
L 302.520595 136.002388 
L 304.491981 134.810115 
L 306.463367 133.617842 
L 308.434753 132.425569 
L 310.406139 131.233296 
L 312.377525 130.041023 
L 314.348911 128.84875 
L 316.320297 127.656477 
L 318.291683 126.464204 
L 320.26307 125.27193 
L 322.234456 124.079657 
L 324.205842 122.887384 
L 326.177228 121.695111 
L 328.148614 120.502838 
L 330.12 119.310565 
" style="fill:none;stroke:#ff7f0e;stroke-linecap:square;stroke-width:2.25;"/>
   </g>
   <g id="patch_3">
    <path d="M 112.68 252 
L 112.68 34.56 
" style="fill:none;stroke:#000000;stroke-linecap:square;stroke-linejoin:miter;stroke-width:0.8;"/>
   </g>
   <g id="patch_4">
    <path d="M 330.12 252 
L 330.12 34.56 
" style="fill:none;stroke:#000000;stroke-linecap:square;stroke-linejoin:miter;stroke-width:0.8;"/>
   </g>
   <g id="patch_5">
    <path d="M 112.68 252 
L 330.12 252 
" style="fill:none;stroke:#000000;stroke-linecap:square;stroke-linejoin:miter;stroke-width:0.8;"/>
   </g>
   <g id="patch_6">
    <path d="M 112.68 34.56 
L 330.12 34.56 
" style="fill:none;stroke:#000000;stroke-linecap:square;stroke-linejoin:miter;stroke-width:0.8;"/>
   </g>
   <g id="legend_1">
    <g id="patch_7">
     <path d="M 119.68 71.91625 
L 212.84875 71.91625 
Q 214.84875 71.91625 214.84875 69.91625 
L 214.84875 41.56 
Q 214.84875 39.56 212.84875 39.56 
L 119.68 39.56 
Q 117.68 39.56 117.68 41.56 
L 117.68 69.91625 
Q 117.68 71.91625 119.68 71.91625 
z
" style="fill:#ffffff;opacity:0.8;stroke:#cccccc;stroke-linejoin:miter;"/>
    </g>
    <g id="line2d_16">
     <path d="M 121.68 47.658437 
L 141.68 47.658437 
" style="fill:none;stroke:#1f77b4;stroke-linecap:square;stroke-width:2.25;"/>
    </g>
    <g id="line2d_17"/>
    <g id="text_15">
     <!-- Corrected -->
     <g transform="translate(149.68 51.158437)scale(0.1 -0.1)">
      <defs>
       <path d="M 64.40625 67.28125 
L 64.40625 56.890625 
Q 59.421875 61.53125 53.78125 63.8125 
Q 48.140625 66.109375 41.796875 66.109375 
Q 29.296875 66.109375 22.65625 58.46875 
Q 16.015625 50.828125 16.015625 36.375 
Q 16.015625 21.96875 22.65625 14.328125 
Q 29.296875 6.6875 41.796875 6.6875 
Q 48.140625 6.6875 53.78125 8.984375 
Q 59.421875 11.28125 64.40625 15.921875 
L 64.40625 5.609375 
Q 59.234375 2.09375 53.4375 0.328125 
Q 47.65625 -1.421875 41.21875 -1.421875 
Q 24.65625 -1.421875 15.125 8.703125 
Q 5.609375 18.84375 5.609375 36.375 
Q 5.609375 53.953125 15.125 64.078125 
Q 24.65625 74.21875 41.21875 74.21875 
Q 47.75 74.21875 53.53125 72.484375 
Q 59.328125 70.75 64.40625 67.28125 
z
" id="DejaVuSans-67"/>
      </defs>
      <use xlink:href="#DejaVuSans-67"/>
      <use x="69.824219" xlink:href="#DejaVuSans-111"/>
      <use x="131.005859" xlink:href="#DejaVuSans-114"/>
      <use x="170.369141" xlink:href="#DejaVuSans-114"/>
      <use x="209.232422" xlink:href="#DejaVuSans-101"/>
      <use x="270.755859" xlink:href="#DejaVuSans-99"/>
      <use x="325.736328" xlink:href="#DejaVuSans-116"/>
      <use x="364.945312" xlink:href="#DejaVuSans-101"/>
      <use x="426.46875" xlink:href="#DejaVuSans-100"/>
     </g>
    </g>
    <g id="line2d_18">
     <path d="M 121.68 62.336562 
L 141.68 62.336562 
" style="fill:none;stroke:#ff7f0e;stroke-linecap:square;stroke-width:2.25;"/>
    </g>
    <g id="line2d_19"/>
    <g id="text_16">
     <!-- Uncorrected -->
     <g transform="translate(149.68 65.836562)scale(0.1 -0.1)">
      <defs>
       <path d="M 8.6875 72.90625 
L 18.609375 72.90625 
L 18.609375 28.609375 
Q 18.609375 16.890625 22.84375 11.734375 
Q 27.09375 6.59375 36.625 6.59375 
Q 46.09375 6.59375 50.34375 11.734375 
Q 54.59375 16.890625 54.59375 28.609375 
L 54.59375 72.90625 
L 64.5 72.90625 
L 64.5 27.390625 
Q 64.5 13.140625 57.4375 5.859375 
Q 50.390625 -1.421875 36.625 -1.421875 
Q 22.796875 -1.421875 15.734375 5.859375 
Q 8.6875 13.140625 8.6875 27.390625 
z
" id="DejaVuSans-85"/>
       <path d="M 54.890625 33.015625 
L 54.890625 0 
L 45.90625 0 
L 45.90625 32.71875 
Q 45.90625 40.484375 42.875 44.328125 
Q 39.84375 48.1875 33.796875 48.1875 
Q 26.515625 48.1875 22.3125 43.546875 
Q 18.109375 38.921875 18.109375 30.90625 
L 18.109375 0 
L 9.078125 0 
L 9.078125 54.6875 
L 18.109375 54.6875 
L 18.109375 46.1875 
Q 21.34375 51.125 25.703125 53.5625 
Q 30.078125 56 35.796875 56 
Q 45.21875 56 50.046875 50.171875 
Q 54.890625 44.34375 54.890625 33.015625 
z
" id="DejaVuSans-110"/>
      </defs>
      <use xlink:href="#DejaVuSans-85"/>
      <use x="73.193359" xlink:href="#DejaVuSans-110"/>
      <use x="136.572266" xlink:href="#DejaVuSans-99"/>
      <use x="191.552734" xlink:href="#DejaVuSans-111"/>
      <use x="252.734375" xlink:href="#DejaVuSans-114"/>
      <use x="292.097656" xlink:href="#DejaVuSans-114"/>
      <use x="330.960938" xlink:href="#DejaVuSans-101"/>
      <use x="392.484375" xlink:href="#DejaVuSans-99"/>
      <use x="447.464844" xlink:href="#DejaVuSans-116"/>
      <use x="486.673828" xlink:href="#DejaVuSans-101"/>
      <use x="548.197266" xlink:href="#DejaVuSans-100"/>
     </g>
    </g>
   </g>
  </g>
 </g>
 <defs>
  <clipPath id="p8957b2c889">
   <rect height="217.44" width="217.44" x="112.68" y="34.56"/>
  </clipPath>
 </defs>
</svg>
