<?xml version="1.0" encoding="utf-8" standalone="no"?>
<!DOCTYPE svg PUBLIC "-//W3C//DTD SVG 1.1//EN"
  "http://www.w3.org/Graphics/SVG/1.1/DTD/svg11.dtd">
<!-- Created with matplotlib (https://matplotlib.org/) -->
<svg height="288pt" version="1.1" viewBox="0 0 432 288" width="432pt" xmlns="http://www.w3.org/2000/svg" xmlns:xlink="http://www.w3.org/1999/xlink">
 <metadata>
  <rdf:RDF xmlns:cc="http://creativecommons.org/ns#" xmlns:dc="http://purl.org/dc/elements/1.1/" xmlns:rdf="http://www.w3.org/1999/02/22-rdf-syntax-ns#">
   <cc:Work>
    <dc:type rdf:resource="http://purl.org/dc/dcmitype/StillImage"/>
    <dc:date>2021-06-17T16:04:06.489423</dc:date>
    <dc:format>image/svg+xml</dc:format>
    <dc:creator>
     <cc:Agent>
      <dc:title>Matplotlib v3.3.4, https://matplotlib.org/</dc:title>
     </cc:Agent>
    </dc:creator>
   </cc:Work>
  </rdf:RDF>
 </metadata>
 <defs>
  <style type="text/css">*{stroke-linecap:butt;stroke-linejoin:round;}</style>
 </defs>
 <g id="figure_1">
  <g id="patch_1">
   <path d="M 0 288 
L 432 288 
L 432 0 
L 0 0 
z
" style="fill:none;"/>
  </g>
  <g id="axes_1">
   <g id="patch_2">
    <path d="M 112.68 252 
L 330.12 252 
L 330.12 34.56 
L 112.68 34.56 
z
" style="fill:#ffffff;"/>
   </g>
   <g id="line2d_1">
    <path clip-path="url(#p9d15434d43)" d="M 112.68 252 
L 330.12 34.56 
" style="fill:none;stroke:#000000;stroke-linecap:square;stroke-opacity:0.75;stroke-width:1.5;"/>
   </g>
   <g id="PathCollection_1">
    <defs>
     <path d="M 0 3 
C 0.795609 3 1.55874 2.683901 2.12132 2.12132 
C 2.683901 1.55874 3 0.795609 3 0 
C 3 -0.795609 2.683901 -1.55874 2.12132 -2.12132 
C 1.55874 -2.683901 0.795609 -3 0 -3 
C -0.795609 -3 -1.55874 -2.683901 -2.12132 -2.12132 
C -2.683901 -1.55874 -3 -0.795609 -3 0 
C -3 0.795609 -2.683901 1.55874 -2.12132 2.12132 
C -1.55874 2.683901 -0.795609 3 0 3 
z
" id="m86a9b7a696" style="stroke:#1f77b4;stroke-opacity:0.8;"/>
    </defs>
    <g clip-path="url(#p9d15434d43)">
     <use style="fill:#1f77b4;fill-opacity:0.8;stroke:#1f77b4;stroke-opacity:0.8;" x="317.127495" xlink:href="#m86a9b7a696" y="208.09861"/>
     <use style="fill:#1f77b4;fill-opacity:0.8;stroke:#1f77b4;stroke-opacity:0.8;" x="243.695083" xlink:href="#m86a9b7a696" y="227.423932"/>
     <use style="fill:#1f77b4;fill-opacity:0.8;stroke:#1f77b4;stroke-opacity:0.8;" x="303.240324" xlink:href="#m86a9b7a696" y="218.9202"/>
     <use style="fill:#1f77b4;fill-opacity:0.8;stroke:#1f77b4;stroke-opacity:0.8;" x="229.085781" xlink:href="#m86a9b7a696" y="228.616566"/>
     <use style="fill:#1f77b4;fill-opacity:0.8;stroke:#1f77b4;stroke-opacity:0.8;" x="272.012017" xlink:href="#m86a9b7a696" y="188.286132"/>
     <use style="fill:#1f77b4;fill-opacity:0.8;stroke:#1f77b4;stroke-opacity:0.8;" x="287.30819" xlink:href="#m86a9b7a696" y="182.646254"/>
     <use style="fill:#1f77b4;fill-opacity:0.8;stroke:#1f77b4;stroke-opacity:0.8;" x="330.12" xlink:href="#m86a9b7a696" y="188.573686"/>
     <use style="fill:#1f77b4;fill-opacity:0.8;stroke:#1f77b4;stroke-opacity:0.8;" x="299.09887" xlink:href="#m86a9b7a696" y="222.617386"/>
     <use style="fill:#1f77b4;fill-opacity:0.8;stroke:#1f77b4;stroke-opacity:0.8;" x="235.750752" xlink:href="#m86a9b7a696" y="223.802771"/>
     <use style="fill:#1f77b4;fill-opacity:0.8;stroke:#1f77b4;stroke-opacity:0.8;" x="325.750273" xlink:href="#m86a9b7a696" y="139.123717"/>
    </g>
   </g>
   <g id="PolyCollection_1">
    <path clip-path="url(#p9d15434d43)" d="M 229.085781 209.935975 
L 229.085781 242.240052 
L 230.106329 241.527468 
L 231.126877 240.89424 
L 232.147424 240.261012 
L 233.167972 239.627784 
L 234.18852 238.948735 
L 235.209067 238.189691 
L 236.229615 237.430646 
L 237.250163 236.804684 
L 238.27071 236.290688 
L 239.291258 235.776693 
L 240.311806 235.21745 
L 241.332353 234.590505 
L 242.352901 233.96356 
L 243.373449 233.44052 
L 244.393996 232.94152 
L 245.414544 232.246088 
L 246.435092 231.546024 
L 247.455639 231.023725 
L 248.476187 230.401117 
L 249.496735 229.708892 
L 250.517282 229.070132 
L 251.53783 228.482656 
L 252.558378 227.961405 
L 253.578925 227.307703 
L 254.599473 226.678166 
L 255.620021 226.028552 
L 256.640568 225.50235 
L 257.661116 225.077776 
L 258.681664 224.553885 
L 259.702211 224.249778 
L 260.722759 223.774201 
L 261.743307 223.587108 
L 262.763854 223.108308 
L 263.784402 222.625009 
L 264.80495 222.168308 
L 265.825497 221.848905 
L 266.846045 221.435956 
L 267.866593 221.255764 
L 268.88714 220.827113 
L 269.907688 220.572797 
L 270.928236 220.36815 
L 271.948783 219.932493 
L 272.969331 219.751527 
L 273.989879 219.493099 
L 275.010426 219.260714 
L 276.030974 218.831965 
L 277.051522 218.564504 
L 278.072069 218.119036 
L 279.092617 217.786478 
L 280.113165 217.52377 
L 281.133712 217.197618 
L 282.15426 216.996682 
L 283.174808 216.775248 
L 284.195355 216.608677 
L 285.215903 216.442106 
L 286.236451 216.257283 
L 287.256998 216.070727 
L 288.277546 215.893467 
L 289.298094 215.697003 
L 290.318641 215.511059 
L 291.339189 215.321523 
L 292.359737 215.03172 
L 293.380284 214.831954 
L 294.400832 214.646485 
L 295.42138 214.461015 
L 296.441927 214.275546 
L 297.462475 214.089977 
L 298.483022 213.903013 
L 299.50357 213.701291 
L 300.524118 213.485956 
L 301.544665 213.310051 
L 302.565213 213.160878 
L 303.585761 212.990225 
L 304.606308 212.85251 
L 305.626856 212.681036 
L 306.647404 212.510304 
L 307.667951 212.256435 
L 308.688499 212.04168 
L 309.709047 211.779706 
L 310.729594 211.617806 
L 311.750142 211.331118 
L 312.77069 211.021754 
L 313.791237 210.731813 
L 314.811785 210.92945 
L 315.832333 210.76311 
L 316.85288 210.571543 
L 317.873428 210.45829 
L 318.893976 210.271494 
L 319.914523 210.084697 
L 320.935071 209.897901 
L 321.955619 209.7103 
L 322.976166 209.515169 
L 323.996714 209.267927 
L 325.017262 209.0824 
L 326.037809 208.89693 
L 327.058357 208.711461 
L 328.078905 208.525992 
L 329.099452 208.367645 
L 330.12 208.216732 
L 330.12 153.100986 
L 330.12 153.100986 
L 329.099452 155.095456 
L 328.078905 155.851595 
L 327.058357 156.607735 
L 326.037809 157.363875 
L 325.017262 158.120015 
L 323.996714 158.876155 
L 322.976166 159.632295 
L 321.955619 160.388435 
L 320.935071 161.144575 
L 319.914523 161.900714 
L 318.893976 162.656854 
L 317.873428 163.412994 
L 316.85288 164.169134 
L 315.832333 164.925274 
L 314.811785 165.723615 
L 313.791237 166.562958 
L 312.77069 167.4023 
L 311.750142 168.241643 
L 310.729594 169.080986 
L 309.709047 169.920329 
L 308.688499 170.759672 
L 307.667951 171.599014 
L 306.647404 172.438357 
L 305.626856 173.2777 
L 304.606308 174.05863 
L 303.585761 174.764282 
L 302.565213 175.469934 
L 301.544665 176.175587 
L 300.524118 176.881239 
L 299.50357 177.586891 
L 298.483022 178.292543 
L 297.462475 178.998196 
L 296.441927 179.703848 
L 295.42138 180.4095 
L 294.400832 181.115843 
L 293.380284 181.82248 
L 292.359737 182.529117 
L 291.339189 183.235754 
L 290.318641 183.95984 
L 289.298094 184.750963 
L 288.277546 185.440531 
L 287.256998 186.055154 
L 286.236451 186.790129 
L 285.215903 187.542841 
L 284.195355 188.167358 
L 283.174808 188.871926 
L 282.15426 189.430535 
L 281.133712 189.956776 
L 280.113165 190.515456 
L 279.092617 191.142874 
L 278.072069 191.966111 
L 277.051522 192.830851 
L 276.030974 193.588657 
L 275.010426 194.140432 
L 273.989879 194.948676 
L 272.969331 195.835492 
L 271.948783 196.533319 
L 270.928236 197.107106 
L 269.907688 197.621595 
L 268.88714 198.348369 
L 267.866593 199.165337 
L 266.846045 199.816223 
L 265.825497 200.236322 
L 264.80495 200.850351 
L 263.784402 201.526751 
L 262.763854 201.887323 
L 261.743307 202.39362 
L 260.722759 202.875779 
L 259.702211 203.542485 
L 258.681664 204.250254 
L 257.661116 204.780413 
L 256.640568 205.430319 
L 255.620021 205.798281 
L 254.599473 206.103769 
L 253.578925 206.263975 
L 252.558378 206.457591 
L 251.53783 206.641676 
L 250.517282 206.77467 
L 249.496735 206.98299 
L 248.476187 207.104328 
L 247.455639 207.273711 
L 246.435092 207.474206 
L 245.414544 207.715355 
L 244.393996 207.893513 
L 243.373449 208.072818 
L 242.352901 208.257355 
L 241.332353 208.434408 
L 240.311806 208.611461 
L 239.291258 208.787048 
L 238.27071 208.901256 
L 237.250163 209.015463 
L 236.229615 209.129671 
L 235.209067 209.244095 
L 234.18852 209.359408 
L 233.167972 209.474722 
L 232.147424 209.590035 
L 231.126877 209.705348 
L 230.106329 209.820662 
L 229.085781 209.935975 
z
" style="fill:#1f77b4;fill-opacity:0.15;"/>
   </g>
   <g id="PathCollection_2">
    <defs>
     <path d="M 0 3 
C 0.795609 3 1.55874 2.683901 2.12132 2.12132 
C 2.683901 1.55874 3 0.795609 3 0 
C 3 -0.795609 2.683901 -1.55874 2.12132 -2.12132 
C 1.55874 -2.683901 0.795609 -3 0 -3 
C -0.795609 -3 -1.55874 -2.683901 -2.12132 -2.12132 
C -2.683901 -1.55874 -3 -0.795609 -3 0 
C -3 0.795609 -2.683901 1.55874 -2.12132 2.12132 
C -1.55874 2.683901 -0.795609 3 0 3 
z
" id="m4613714f6e" style="stroke:#ff7f0e;stroke-opacity:0.8;"/>
    </defs>
    <g clip-path="url(#p9d15434d43)">
     <use style="fill:#ff7f0e;fill-opacity:0.8;stroke:#ff7f0e;stroke-opacity:0.8;" x="317.127495" xlink:href="#m4613714f6e" y="160.57248"/>
     <use style="fill:#ff7f0e;fill-opacity:0.8;stroke:#ff7f0e;stroke-opacity:0.8;" x="243.695083" xlink:href="#m4613714f6e" y="183.815308"/>
     <use style="fill:#ff7f0e;fill-opacity:0.8;stroke:#ff7f0e;stroke-opacity:0.8;" x="303.240324" xlink:href="#m4613714f6e" y="163.361238"/>
     <use style="fill:#ff7f0e;fill-opacity:0.8;stroke:#ff7f0e;stroke-opacity:0.8;" x="229.085781" xlink:href="#m4613714f6e" y="181.767386"/>
     <use style="fill:#ff7f0e;fill-opacity:0.8;stroke:#ff7f0e;stroke-opacity:0.8;" x="272.012017" xlink:href="#m4613714f6e" y="113.247502"/>
     <use style="fill:#ff7f0e;fill-opacity:0.8;stroke:#ff7f0e;stroke-opacity:0.8;" x="287.30819" xlink:href="#m4613714f6e" y="99.843701"/>
     <use style="fill:#ff7f0e;fill-opacity:0.8;stroke:#ff7f0e;stroke-opacity:0.8;" x="330.12" xlink:href="#m4613714f6e" y="126.63789"/>
     <use style="fill:#ff7f0e;fill-opacity:0.8;stroke:#ff7f0e;stroke-opacity:0.8;" x="299.09887" xlink:href="#m4613714f6e" y="173.967022"/>
     <use style="fill:#ff7f0e;fill-opacity:0.8;stroke:#ff7f0e;stroke-opacity:0.8;" x="235.750752" xlink:href="#m4613714f6e" y="185.809068"/>
     <use style="fill:#ff7f0e;fill-opacity:0.8;stroke:#ff7f0e;stroke-opacity:0.8;" x="325.750273" xlink:href="#m4613714f6e" y="47.041086"/>
    </g>
   </g>
   <g id="PolyCollection_2">
    <path clip-path="url(#p9d15434d43)" d="M 229.085781 148.783686 
L 229.085781 206.59937 
L 230.106329 205.629467 
L 231.126877 204.659565 
L 232.147424 203.689662 
L 233.167972 202.764215 
L 234.18852 201.919978 
L 235.209067 201.071281 
L 236.229615 200.069182 
L 237.250163 199.200662 
L 238.27071 198.063209 
L 239.291258 197.05243 
L 240.311806 196.041651 
L 241.332353 195.035131 
L 242.352901 194.162578 
L 243.373449 193.024008 
L 244.393996 192.015807 
L 245.414544 191.010486 
L 246.435092 190.005165 
L 247.455639 189.026678 
L 248.476187 187.9924 
L 249.496735 186.87764 
L 250.517282 185.86387 
L 251.53783 185.002248 
L 252.558378 184.164662 
L 253.578925 183.391008 
L 254.599473 182.418937 
L 255.620021 181.401695 
L 256.640568 180.690239 
L 257.661116 180.090379 
L 258.681664 179.119561 
L 259.702211 178.397547 
L 260.722759 177.799574 
L 261.743307 177.540812 
L 262.763854 176.8171 
L 263.784402 176.370913 
L 264.80495 176.051654 
L 265.825497 175.608391 
L 266.846045 174.935426 
L 267.866593 174.194877 
L 268.88714 173.51849 
L 269.907688 173.004038 
L 270.928236 172.468582 
L 271.948783 171.700592 
L 272.969331 171.130818 
L 273.989879 170.495122 
L 275.010426 169.982263 
L 276.030974 169.470305 
L 277.051522 168.874471 
L 278.072069 168.482414 
L 279.092617 168.188968 
L 280.113165 167.848612 
L 281.133712 167.619705 
L 282.15426 167.342348 
L 283.174808 167.039075 
L 284.195355 166.484677 
L 285.215903 166.051143 
L 286.236451 165.797664 
L 287.256998 165.457359 
L 288.277546 165.11492 
L 289.298094 164.77248 
L 290.318641 164.430041 
L 291.339189 164.087602 
L 292.359737 163.723548 
L 293.380284 163.355807 
L 294.400832 163.016638 
L 295.42138 162.578443 
L 296.441927 162.068129 
L 297.462475 161.838138 
L 298.483022 161.513004 
L 299.50357 161.14422 
L 300.524118 160.775944 
L 301.544665 160.394398 
L 302.565213 159.998425 
L 303.585761 159.615324 
L 304.606308 159.175742 
L 305.626856 158.769744 
L 306.647404 158.363745 
L 307.667951 157.968557 
L 308.688499 157.696872 
L 309.709047 157.455281 
L 310.729594 157.094348 
L 311.750142 156.813972 
L 312.77069 156.575627 
L 313.791237 156.337281 
L 314.811785 156.098936 
L 315.832333 155.859644 
L 316.85288 155.545118 
L 317.873428 155.29839 
L 318.893976 155.145554 
L 319.914523 154.901397 
L 320.935071 154.646443 
L 321.955619 154.391489 
L 322.976166 154.136234 
L 323.996714 153.80107 
L 325.017262 153.626625 
L 326.037809 153.371671 
L 327.058357 153.242373 
L 328.078905 152.879968 
L 329.099452 152.606808 
L 330.12 152.351854 
L 330.12 62.773694 
L 330.12 62.773694 
L 329.099452 64.090959 
L 328.078905 65.347595 
L 327.058357 66.60423 
L 326.037809 67.860865 
L 325.017262 69.117501 
L 323.996714 70.374136 
L 322.976166 71.630771 
L 321.955619 72.977925 
L 320.935071 74.37192 
L 319.914523 75.765916 
L 318.893976 76.980511 
L 317.873428 78.190701 
L 316.85288 79.321043 
L 315.832333 80.400811 
L 314.811785 81.647113 
L 313.791237 82.893415 
L 312.77069 84.139716 
L 311.750142 85.386018 
L 310.729594 86.626096 
L 309.709047 87.837654 
L 308.688499 89.051396 
L 307.667951 90.265137 
L 306.647404 91.478878 
L 305.626856 92.69262 
L 304.606308 93.906361 
L 303.585761 95.120102 
L 302.565213 96.345497 
L 301.544665 97.784692 
L 300.524118 99.19586 
L 299.50357 100.488719 
L 298.483022 101.880259 
L 297.462475 103.271799 
L 296.441927 104.663339 
L 295.42138 105.931044 
L 294.400832 106.87221 
L 293.380284 107.967893 
L 292.359737 109.214069 
L 291.339189 110.469832 
L 290.318641 111.790559 
L 289.298094 113.332065 
L 288.277546 114.210383 
L 287.256998 115.462305 
L 286.236451 116.465763 
L 285.215903 116.888515 
L 284.195355 118.119914 
L 283.174808 119.402851 
L 282.15426 120.685788 
L 281.133712 121.968725 
L 280.113165 123.050198 
L 279.092617 124.384089 
L 278.072069 125.348561 
L 277.051522 126.430391 
L 276.030974 127.596232 
L 275.010426 128.664479 
L 273.989879 129.475501 
L 272.969331 130.489398 
L 271.948783 131.394942 
L 270.928236 132.163523 
L 269.907688 132.889615 
L 268.88714 133.47073 
L 267.866593 134.37681 
L 266.846045 135.065358 
L 265.825497 136.006428 
L 264.80495 136.670252 
L 263.784402 137.545089 
L 262.763854 138.272605 
L 261.743307 139.537847 
L 260.722759 140.183242 
L 259.702211 141.200824 
L 258.681664 141.479102 
L 257.661116 142.296867 
L 256.640568 143.463204 
L 255.620021 144.127607 
L 254.599473 144.680525 
L 253.578925 144.884673 
L 252.558378 144.957724 
L 251.53783 145.038723 
L 250.517282 145.197451 
L 249.496735 145.356178 
L 248.476187 145.515239 
L 247.455639 146.123509 
L 246.435092 146.278573 
L 245.414544 146.425933 
L 244.393996 146.573292 
L 243.373449 146.929756 
L 242.352901 147.106287 
L 241.332353 147.236338 
L 240.311806 147.350861 
L 239.291258 147.465385 
L 238.27071 147.579908 
L 237.250163 147.694431 
L 236.229615 147.808955 
L 235.209067 147.923478 
L 234.18852 148.046888 
L 233.167972 148.194248 
L 232.147424 148.341607 
L 231.126877 148.488967 
L 230.106329 148.636327 
L 229.085781 148.783686 
z
" style="fill:#ff7f0e;fill-opacity:0.15;"/>
   </g>
   <g id="matplotlib.axis_1">
    <g id="xtick_1">
     <g id="line2d_2">
      <defs>
       <path d="M 0 0 
L 0 3.5 
" id="mf24a6a1eed" style="stroke:#000000;stroke-width:0.8;"/>
      </defs>
      <g>
       <use style="stroke:#000000;stroke-width:0.8;" x="142.8651" xlink:href="#mf24a6a1eed" y="252"/>
      </g>
     </g>
     <g id="text_1">
      <!-- 1.2 -->
      <g transform="translate(134.913537 266.598437)scale(0.1 -0.1)">
       <defs>
        <path d="M 12.40625 8.296875 
L 28.515625 8.296875 
L 28.515625 63.921875 
L 10.984375 60.40625 
L 10.984375 69.390625 
L 28.421875 72.90625 
L 38.28125 72.90625 
L 38.28125 8.296875 
L 54.390625 8.296875 
L 54.390625 0 
L 12.40625 0 
z
" id="DejaVuSans-49"/>
        <path d="M 10.6875 12.40625 
L 21 12.40625 
L 21 0 
L 10.6875 0 
z
" id="DejaVuSans-46"/>
        <path d="M 19.1875 8.296875 
L 53.609375 8.296875 
L 53.609375 0 
L 7.328125 0 
L 7.328125 8.296875 
Q 12.9375 14.109375 22.625 23.890625 
Q 32.328125 33.6875 34.8125 36.53125 
Q 39.546875 41.84375 41.421875 45.53125 
Q 43.3125 49.21875 43.3125 52.78125 
Q 43.3125 58.59375 39.234375 62.25 
Q 35.15625 65.921875 28.609375 65.921875 
Q 23.96875 65.921875 18.8125 64.3125 
Q 13.671875 62.703125 7.8125 59.421875 
L 7.8125 69.390625 
Q 13.765625 71.78125 18.9375 73 
Q 24.125 74.21875 28.421875 74.21875 
Q 39.75 74.21875 46.484375 68.546875 
Q 53.21875 62.890625 53.21875 53.421875 
Q 53.21875 48.921875 51.53125 44.890625 
Q 49.859375 40.875 45.40625 35.40625 
Q 44.1875 33.984375 37.640625 27.21875 
Q 31.109375 20.453125 19.1875 8.296875 
z
" id="DejaVuSans-50"/>
       </defs>
       <use xlink:href="#DejaVuSans-49"/>
       <use x="63.623047" xlink:href="#DejaVuSans-46"/>
       <use x="95.410156" xlink:href="#DejaVuSans-50"/>
      </g>
     </g>
    </g>
    <g id="xtick_2">
     <g id="line2d_3">
      <g>
       <use style="stroke:#000000;stroke-width:0.8;" x="190.026745" xlink:href="#mf24a6a1eed" y="252"/>
      </g>
     </g>
     <g id="text_2">
      <!-- 1.4 -->
      <g transform="translate(182.075183 266.598437)scale(0.1 -0.1)">
       <defs>
        <path d="M 37.796875 64.3125 
L 12.890625 25.390625 
L 37.796875 25.390625 
z
M 35.203125 72.90625 
L 47.609375 72.90625 
L 47.609375 25.390625 
L 58.015625 25.390625 
L 58.015625 17.1875 
L 47.609375 17.1875 
L 47.609375 0 
L 37.796875 0 
L 37.796875 17.1875 
L 4.890625 17.1875 
L 4.890625 26.703125 
z
" id="DejaVuSans-52"/>
       </defs>
       <use xlink:href="#DejaVuSans-49"/>
       <use x="63.623047" xlink:href="#DejaVuSans-46"/>
       <use x="95.410156" xlink:href="#DejaVuSans-52"/>
      </g>
     </g>
    </g>
    <g id="xtick_3">
     <g id="line2d_4">
      <g>
       <use style="stroke:#000000;stroke-width:0.8;" x="237.18839" xlink:href="#mf24a6a1eed" y="252"/>
      </g>
     </g>
     <g id="text_3">
      <!-- 1.6 -->
      <g transform="translate(229.236828 266.598437)scale(0.1 -0.1)">
       <defs>
        <path d="M 33.015625 40.375 
Q 26.375 40.375 22.484375 35.828125 
Q 18.609375 31.296875 18.609375 23.390625 
Q 18.609375 15.53125 22.484375 10.953125 
Q 26.375 6.390625 33.015625 6.390625 
Q 39.65625 6.390625 43.53125 10.953125 
Q 47.40625 15.53125 47.40625 23.390625 
Q 47.40625 31.296875 43.53125 35.828125 
Q 39.65625 40.375 33.015625 40.375 
z
M 52.59375 71.296875 
L 52.59375 62.3125 
Q 48.875 64.0625 45.09375 64.984375 
Q 41.3125 65.921875 37.59375 65.921875 
Q 27.828125 65.921875 22.671875 59.328125 
Q 17.53125 52.734375 16.796875 39.40625 
Q 19.671875 43.65625 24.015625 45.921875 
Q 28.375 48.1875 33.59375 48.1875 
Q 44.578125 48.1875 50.953125 41.515625 
Q 57.328125 34.859375 57.328125 23.390625 
Q 57.328125 12.15625 50.6875 5.359375 
Q 44.046875 -1.421875 33.015625 -1.421875 
Q 20.359375 -1.421875 13.671875 8.265625 
Q 6.984375 17.96875 6.984375 36.375 
Q 6.984375 53.65625 15.1875 63.9375 
Q 23.390625 74.21875 37.203125 74.21875 
Q 40.921875 74.21875 44.703125 73.484375 
Q 48.484375 72.75 52.59375 71.296875 
z
" id="DejaVuSans-54"/>
       </defs>
       <use xlink:href="#DejaVuSans-49"/>
       <use x="63.623047" xlink:href="#DejaVuSans-46"/>
       <use x="95.410156" xlink:href="#DejaVuSans-54"/>
      </g>
     </g>
    </g>
    <g id="xtick_4">
     <g id="line2d_5">
      <g>
       <use style="stroke:#000000;stroke-width:0.8;" x="284.350036" xlink:href="#mf24a6a1eed" y="252"/>
      </g>
     </g>
     <g id="text_4">
      <!-- 1.8 -->
      <g transform="translate(276.398473 266.598437)scale(0.1 -0.1)">
       <defs>
        <path d="M 31.78125 34.625 
Q 24.75 34.625 20.71875 30.859375 
Q 16.703125 27.09375 16.703125 20.515625 
Q 16.703125 13.921875 20.71875 10.15625 
Q 24.75 6.390625 31.78125 6.390625 
Q 38.8125 6.390625 42.859375 10.171875 
Q 46.921875 13.96875 46.921875 20.515625 
Q 46.921875 27.09375 42.890625 30.859375 
Q 38.875 34.625 31.78125 34.625 
z
M 21.921875 38.8125 
Q 15.578125 40.375 12.03125 44.71875 
Q 8.5 49.078125 8.5 55.328125 
Q 8.5 64.0625 14.71875 69.140625 
Q 20.953125 74.21875 31.78125 74.21875 
Q 42.671875 74.21875 48.875 69.140625 
Q 55.078125 64.0625 55.078125 55.328125 
Q 55.078125 49.078125 51.53125 44.71875 
Q 48 40.375 41.703125 38.8125 
Q 48.828125 37.15625 52.796875 32.3125 
Q 56.78125 27.484375 56.78125 20.515625 
Q 56.78125 9.90625 50.3125 4.234375 
Q 43.84375 -1.421875 31.78125 -1.421875 
Q 19.734375 -1.421875 13.25 4.234375 
Q 6.78125 9.90625 6.78125 20.515625 
Q 6.78125 27.484375 10.78125 32.3125 
Q 14.796875 37.15625 21.921875 38.8125 
z
M 18.3125 54.390625 
Q 18.3125 48.734375 21.84375 45.5625 
Q 25.390625 42.390625 31.78125 42.390625 
Q 38.140625 42.390625 41.71875 45.5625 
Q 45.3125 48.734375 45.3125 54.390625 
Q 45.3125 60.0625 41.71875 63.234375 
Q 38.140625 66.40625 31.78125 66.40625 
Q 25.390625 66.40625 21.84375 63.234375 
Q 18.3125 60.0625 18.3125 54.390625 
z
" id="DejaVuSans-56"/>
       </defs>
       <use xlink:href="#DejaVuSans-49"/>
       <use x="63.623047" xlink:href="#DejaVuSans-46"/>
       <use x="95.410156" xlink:href="#DejaVuSans-56"/>
      </g>
     </g>
    </g>
    <g id="text_5">
     <!-- Chain and tape roughness -->
     <g transform="translate(155.7 280.276563)scale(0.1 -0.1)">
      <defs>
       <path d="M 64.40625 67.28125 
L 64.40625 56.890625 
Q 59.421875 61.53125 53.78125 63.8125 
Q 48.140625 66.109375 41.796875 66.109375 
Q 29.296875 66.109375 22.65625 58.46875 
Q 16.015625 50.828125 16.015625 36.375 
Q 16.015625 21.96875 22.65625 14.328125 
Q 29.296875 6.6875 41.796875 6.6875 
Q 48.140625 6.6875 53.78125 8.984375 
Q 59.421875 11.28125 64.40625 15.921875 
L 64.40625 5.609375 
Q 59.234375 2.09375 53.4375 0.328125 
Q 47.65625 -1.421875 41.21875 -1.421875 
Q 24.65625 -1.421875 15.125 8.703125 
Q 5.609375 18.84375 5.609375 36.375 
Q 5.609375 53.953125 15.125 64.078125 
Q 24.65625 74.21875 41.21875 74.21875 
Q 47.75 74.21875 53.53125 72.484375 
Q 59.328125 70.75 64.40625 67.28125 
z
" id="DejaVuSans-67"/>
       <path d="M 54.890625 33.015625 
L 54.890625 0 
L 45.90625 0 
L 45.90625 32.71875 
Q 45.90625 40.484375 42.875 44.328125 
Q 39.84375 48.1875 33.796875 48.1875 
Q 26.515625 48.1875 22.3125 43.546875 
Q 18.109375 38.921875 18.109375 30.90625 
L 18.109375 0 
L 9.078125 0 
L 9.078125 75.984375 
L 18.109375 75.984375 
L 18.109375 46.1875 
Q 21.34375 51.125 25.703125 53.5625 
Q 30.078125 56 35.796875 56 
Q 45.21875 56 50.046875 50.171875 
Q 54.890625 44.34375 54.890625 33.015625 
z
" id="DejaVuSans-104"/>
       <path d="M 34.28125 27.484375 
Q 23.390625 27.484375 19.1875 25 
Q 14.984375 22.515625 14.984375 16.5 
Q 14.984375 11.71875 18.140625 8.90625 
Q 21.296875 6.109375 26.703125 6.109375 
Q 34.1875 6.109375 38.703125 11.40625 
Q 43.21875 16.703125 43.21875 25.484375 
L 43.21875 27.484375 
z
M 52.203125 31.203125 
L 52.203125 0 
L 43.21875 0 
L 43.21875 8.296875 
Q 40.140625 3.328125 35.546875 0.953125 
Q 30.953125 -1.421875 24.3125 -1.421875 
Q 15.921875 -1.421875 10.953125 3.296875 
Q 6 8.015625 6 15.921875 
Q 6 25.140625 12.171875 29.828125 
Q 18.359375 34.515625 30.609375 34.515625 
L 43.21875 34.515625 
L 43.21875 35.40625 
Q 43.21875 41.609375 39.140625 45 
Q 35.0625 48.390625 27.6875 48.390625 
Q 23 48.390625 18.546875 47.265625 
Q 14.109375 46.140625 10.015625 43.890625 
L 10.015625 52.203125 
Q 14.9375 54.109375 19.578125 55.046875 
Q 24.21875 56 28.609375 56 
Q 40.484375 56 46.34375 49.84375 
Q 52.203125 43.703125 52.203125 31.203125 
z
" id="DejaVuSans-97"/>
       <path d="M 9.421875 54.6875 
L 18.40625 54.6875 
L 18.40625 0 
L 9.421875 0 
z
M 9.421875 75.984375 
L 18.40625 75.984375 
L 18.40625 64.59375 
L 9.421875 64.59375 
z
" id="DejaVuSans-105"/>
       <path d="M 54.890625 33.015625 
L 54.890625 0 
L 45.90625 0 
L 45.90625 32.71875 
Q 45.90625 40.484375 42.875 44.328125 
Q 39.84375 48.1875 33.796875 48.1875 
Q 26.515625 48.1875 22.3125 43.546875 
Q 18.109375 38.921875 18.109375 30.90625 
L 18.109375 0 
L 9.078125 0 
L 9.078125 54.6875 
L 18.109375 54.6875 
L 18.109375 46.1875 
Q 21.34375 51.125 25.703125 53.5625 
Q 30.078125 56 35.796875 56 
Q 45.21875 56 50.046875 50.171875 
Q 54.890625 44.34375 54.890625 33.015625 
z
" id="DejaVuSans-110"/>
       <path id="DejaVuSans-32"/>
       <path d="M 45.40625 46.390625 
L 45.40625 75.984375 
L 54.390625 75.984375 
L 54.390625 0 
L 45.40625 0 
L 45.40625 8.203125 
Q 42.578125 3.328125 38.25 0.953125 
Q 33.9375 -1.421875 27.875 -1.421875 
Q 17.96875 -1.421875 11.734375 6.484375 
Q 5.515625 14.40625 5.515625 27.296875 
Q 5.515625 40.1875 11.734375 48.09375 
Q 17.96875 56 27.875 56 
Q 33.9375 56 38.25 53.625 
Q 42.578125 51.265625 45.40625 46.390625 
z
M 14.796875 27.296875 
Q 14.796875 17.390625 18.875 11.75 
Q 22.953125 6.109375 30.078125 6.109375 
Q 37.203125 6.109375 41.296875 11.75 
Q 45.40625 17.390625 45.40625 27.296875 
Q 45.40625 37.203125 41.296875 42.84375 
Q 37.203125 48.484375 30.078125 48.484375 
Q 22.953125 48.484375 18.875 42.84375 
Q 14.796875 37.203125 14.796875 27.296875 
z
" id="DejaVuSans-100"/>
       <path d="M 18.3125 70.21875 
L 18.3125 54.6875 
L 36.8125 54.6875 
L 36.8125 47.703125 
L 18.3125 47.703125 
L 18.3125 18.015625 
Q 18.3125 11.328125 20.140625 9.421875 
Q 21.96875 7.515625 27.59375 7.515625 
L 36.8125 7.515625 
L 36.8125 0 
L 27.59375 0 
Q 17.1875 0 13.234375 3.875 
Q 9.28125 7.765625 9.28125 18.015625 
L 9.28125 47.703125 
L 2.6875 47.703125 
L 2.6875 54.6875 
L 9.28125 54.6875 
L 9.28125 70.21875 
z
" id="DejaVuSans-116"/>
       <path d="M 18.109375 8.203125 
L 18.109375 -20.796875 
L 9.078125 -20.796875 
L 9.078125 54.6875 
L 18.109375 54.6875 
L 18.109375 46.390625 
Q 20.953125 51.265625 25.265625 53.625 
Q 29.59375 56 35.59375 56 
Q 45.5625 56 51.78125 48.09375 
Q 58.015625 40.1875 58.015625 27.296875 
Q 58.015625 14.40625 51.78125 6.484375 
Q 45.5625 -1.421875 35.59375 -1.421875 
Q 29.59375 -1.421875 25.265625 0.953125 
Q 20.953125 3.328125 18.109375 8.203125 
z
M 48.6875 27.296875 
Q 48.6875 37.203125 44.609375 42.84375 
Q 40.53125 48.484375 33.40625 48.484375 
Q 26.265625 48.484375 22.1875 42.84375 
Q 18.109375 37.203125 18.109375 27.296875 
Q 18.109375 17.390625 22.1875 11.75 
Q 26.265625 6.109375 33.40625 6.109375 
Q 40.53125 6.109375 44.609375 11.75 
Q 48.6875 17.390625 48.6875 27.296875 
z
" id="DejaVuSans-112"/>
       <path d="M 56.203125 29.59375 
L 56.203125 25.203125 
L 14.890625 25.203125 
Q 15.484375 15.921875 20.484375 11.0625 
Q 25.484375 6.203125 34.421875 6.203125 
Q 39.59375 6.203125 44.453125 7.46875 
Q 49.3125 8.734375 54.109375 11.28125 
L 54.109375 2.78125 
Q 49.265625 0.734375 44.1875 -0.34375 
Q 39.109375 -1.421875 33.890625 -1.421875 
Q 20.796875 -1.421875 13.15625 6.1875 
Q 5.515625 13.8125 5.515625 26.8125 
Q 5.515625 40.234375 12.765625 48.109375 
Q 20.015625 56 32.328125 56 
Q 43.359375 56 49.78125 48.890625 
Q 56.203125 41.796875 56.203125 29.59375 
z
M 47.21875 32.234375 
Q 47.125 39.59375 43.09375 43.984375 
Q 39.0625 48.390625 32.421875 48.390625 
Q 24.90625 48.390625 20.390625 44.140625 
Q 15.875 39.890625 15.1875 32.171875 
z
" id="DejaVuSans-101"/>
       <path d="M 41.109375 46.296875 
Q 39.59375 47.171875 37.8125 47.578125 
Q 36.03125 48 33.890625 48 
Q 26.265625 48 22.1875 43.046875 
Q 18.109375 38.09375 18.109375 28.8125 
L 18.109375 0 
L 9.078125 0 
L 9.078125 54.6875 
L 18.109375 54.6875 
L 18.109375 46.1875 
Q 20.953125 51.171875 25.484375 53.578125 
Q 30.03125 56 36.53125 56 
Q 37.453125 56 38.578125 55.875 
Q 39.703125 55.765625 41.0625 55.515625 
z
" id="DejaVuSans-114"/>
       <path d="M 30.609375 48.390625 
Q 23.390625 48.390625 19.1875 42.75 
Q 14.984375 37.109375 14.984375 27.296875 
Q 14.984375 17.484375 19.15625 11.84375 
Q 23.34375 6.203125 30.609375 6.203125 
Q 37.796875 6.203125 41.984375 11.859375 
Q 46.1875 17.53125 46.1875 27.296875 
Q 46.1875 37.015625 41.984375 42.703125 
Q 37.796875 48.390625 30.609375 48.390625 
z
M 30.609375 56 
Q 42.328125 56 49.015625 48.375 
Q 55.71875 40.765625 55.71875 27.296875 
Q 55.71875 13.875 49.015625 6.21875 
Q 42.328125 -1.421875 30.609375 -1.421875 
Q 18.84375 -1.421875 12.171875 6.21875 
Q 5.515625 13.875 5.515625 27.296875 
Q 5.515625 40.765625 12.171875 48.375 
Q 18.84375 56 30.609375 56 
z
" id="DejaVuSans-111"/>
       <path d="M 8.5 21.578125 
L 8.5 54.6875 
L 17.484375 54.6875 
L 17.484375 21.921875 
Q 17.484375 14.15625 20.5 10.265625 
Q 23.53125 6.390625 29.59375 6.390625 
Q 36.859375 6.390625 41.078125 11.03125 
Q 45.3125 15.671875 45.3125 23.6875 
L 45.3125 54.6875 
L 54.296875 54.6875 
L 54.296875 0 
L 45.3125 0 
L 45.3125 8.40625 
Q 42.046875 3.421875 37.71875 1 
Q 33.40625 -1.421875 27.6875 -1.421875 
Q 18.265625 -1.421875 13.375 4.4375 
Q 8.5 10.296875 8.5 21.578125 
z
M 31.109375 56 
z
" id="DejaVuSans-117"/>
       <path d="M 45.40625 27.984375 
Q 45.40625 37.75 41.375 43.109375 
Q 37.359375 48.484375 30.078125 48.484375 
Q 22.859375 48.484375 18.828125 43.109375 
Q 14.796875 37.75 14.796875 27.984375 
Q 14.796875 18.265625 18.828125 12.890625 
Q 22.859375 7.515625 30.078125 7.515625 
Q 37.359375 7.515625 41.375 12.890625 
Q 45.40625 18.265625 45.40625 27.984375 
z
M 54.390625 6.78125 
Q 54.390625 -7.171875 48.1875 -13.984375 
Q 42 -20.796875 29.203125 -20.796875 
Q 24.46875 -20.796875 20.265625 -20.09375 
Q 16.0625 -19.390625 12.109375 -17.921875 
L 12.109375 -9.1875 
Q 16.0625 -11.328125 19.921875 -12.34375 
Q 23.78125 -13.375 27.78125 -13.375 
Q 36.625 -13.375 41.015625 -8.765625 
Q 45.40625 -4.15625 45.40625 5.171875 
L 45.40625 9.625 
Q 42.625 4.78125 38.28125 2.390625 
Q 33.9375 0 27.875 0 
Q 17.828125 0 11.671875 7.65625 
Q 5.515625 15.328125 5.515625 27.984375 
Q 5.515625 40.671875 11.671875 48.328125 
Q 17.828125 56 27.875 56 
Q 33.9375 56 38.28125 53.609375 
Q 42.625 51.21875 45.40625 46.390625 
L 45.40625 54.6875 
L 54.390625 54.6875 
z
" id="DejaVuSans-103"/>
       <path d="M 44.28125 53.078125 
L 44.28125 44.578125 
Q 40.484375 46.53125 36.375 47.5 
Q 32.28125 48.484375 27.875 48.484375 
Q 21.1875 48.484375 17.84375 46.4375 
Q 14.5 44.390625 14.5 40.28125 
Q 14.5 37.15625 16.890625 35.375 
Q 19.28125 33.59375 26.515625 31.984375 
L 29.59375 31.296875 
Q 39.15625 29.25 43.1875 25.515625 
Q 47.21875 21.78125 47.21875 15.09375 
Q 47.21875 7.46875 41.1875 3.015625 
Q 35.15625 -1.421875 24.609375 -1.421875 
Q 20.21875 -1.421875 15.453125 -0.5625 
Q 10.6875 0.296875 5.421875 2 
L 5.421875 11.28125 
Q 10.40625 8.6875 15.234375 7.390625 
Q 20.0625 6.109375 24.8125 6.109375 
Q 31.15625 6.109375 34.5625 8.28125 
Q 37.984375 10.453125 37.984375 14.40625 
Q 37.984375 18.0625 35.515625 20.015625 
Q 33.0625 21.96875 24.703125 23.78125 
L 21.578125 24.515625 
Q 13.234375 26.265625 9.515625 29.90625 
Q 5.8125 33.546875 5.8125 39.890625 
Q 5.8125 47.609375 11.28125 51.796875 
Q 16.75 56 26.8125 56 
Q 31.78125 56 36.171875 55.265625 
Q 40.578125 54.546875 44.28125 53.078125 
z
" id="DejaVuSans-115"/>
      </defs>
      <use xlink:href="#DejaVuSans-67"/>
      <use x="69.824219" xlink:href="#DejaVuSans-104"/>
      <use x="133.203125" xlink:href="#DejaVuSans-97"/>
      <use x="194.482422" xlink:href="#DejaVuSans-105"/>
      <use x="222.265625" xlink:href="#DejaVuSans-110"/>
      <use x="285.644531" xlink:href="#DejaVuSans-32"/>
      <use x="317.431641" xlink:href="#DejaVuSans-97"/>
      <use x="378.710938" xlink:href="#DejaVuSans-110"/>
      <use x="442.089844" xlink:href="#DejaVuSans-100"/>
      <use x="505.566406" xlink:href="#DejaVuSans-32"/>
      <use x="537.353516" xlink:href="#DejaVuSans-116"/>
      <use x="576.5625" xlink:href="#DejaVuSans-97"/>
      <use x="637.841797" xlink:href="#DejaVuSans-112"/>
      <use x="701.318359" xlink:href="#DejaVuSans-101"/>
      <use x="762.841797" xlink:href="#DejaVuSans-32"/>
      <use x="794.628906" xlink:href="#DejaVuSans-114"/>
      <use x="833.492188" xlink:href="#DejaVuSans-111"/>
      <use x="894.673828" xlink:href="#DejaVuSans-117"/>
      <use x="958.052734" xlink:href="#DejaVuSans-103"/>
      <use x="1021.529297" xlink:href="#DejaVuSans-104"/>
      <use x="1084.908203" xlink:href="#DejaVuSans-110"/>
      <use x="1148.287109" xlink:href="#DejaVuSans-101"/>
      <use x="1209.810547" xlink:href="#DejaVuSans-115"/>
      <use x="1261.910156" xlink:href="#DejaVuSans-115"/>
     </g>
    </g>
   </g>
   <g id="matplotlib.axis_2">
    <g id="ytick_1">
     <g id="line2d_6">
      <defs>
       <path d="M 0 0 
L -3.5 0 
" id="m3822c8dd95" style="stroke:#000000;stroke-width:0.8;"/>
      </defs>
      <g>
       <use style="stroke:#000000;stroke-width:0.8;" x="112.68" xlink:href="#m3822c8dd95" y="221.8149"/>
      </g>
     </g>
     <g id="text_6">
      <!-- 1.2 -->
      <g transform="translate(89.776875 225.614119)scale(0.1 -0.1)">
       <use xlink:href="#DejaVuSans-49"/>
       <use x="63.623047" xlink:href="#DejaVuSans-46"/>
       <use x="95.410156" xlink:href="#DejaVuSans-50"/>
      </g>
     </g>
    </g>
    <g id="ytick_2">
     <g id="line2d_7">
      <g>
       <use style="stroke:#000000;stroke-width:0.8;" x="112.68" xlink:href="#m3822c8dd95" y="174.653255"/>
      </g>
     </g>
     <g id="text_7">
      <!-- 1.4 -->
      <g transform="translate(89.776875 178.452474)scale(0.1 -0.1)">
       <use xlink:href="#DejaVuSans-49"/>
       <use x="63.623047" xlink:href="#DejaVuSans-46"/>
       <use x="95.410156" xlink:href="#DejaVuSans-52"/>
      </g>
     </g>
    </g>
    <g id="ytick_3">
     <g id="line2d_8">
      <g>
       <use style="stroke:#000000;stroke-width:0.8;" x="112.68" xlink:href="#m3822c8dd95" y="127.49161"/>
      </g>
     </g>
     <g id="text_8">
      <!-- 1.6 -->
      <g transform="translate(89.776875 131.290828)scale(0.1 -0.1)">
       <use xlink:href="#DejaVuSans-49"/>
       <use x="63.623047" xlink:href="#DejaVuSans-46"/>
       <use x="95.410156" xlink:href="#DejaVuSans-54"/>
      </g>
     </g>
    </g>
    <g id="ytick_4">
     <g id="line2d_9">
      <g>
       <use style="stroke:#000000;stroke-width:0.8;" x="112.68" xlink:href="#m3822c8dd95" y="80.329964"/>
      </g>
     </g>
     <g id="text_9">
      <!-- 1.8 -->
      <g transform="translate(89.776875 84.129183)scale(0.1 -0.1)">
       <use xlink:href="#DejaVuSans-49"/>
       <use x="63.623047" xlink:href="#DejaVuSans-46"/>
       <use x="95.410156" xlink:href="#DejaVuSans-56"/>
      </g>
     </g>
    </g>
    <g id="text_10">
     <!-- DSM-derived roughness -->
     <g transform="translate(83.697187 202.885469)rotate(-90)scale(0.1 -0.1)">
      <defs>
       <path d="M 19.671875 64.796875 
L 19.671875 8.109375 
L 31.59375 8.109375 
Q 46.6875 8.109375 53.6875 14.9375 
Q 60.6875 21.78125 60.6875 36.53125 
Q 60.6875 51.171875 53.6875 57.984375 
Q 46.6875 64.796875 31.59375 64.796875 
z
M 9.8125 72.90625 
L 30.078125 72.90625 
Q 51.265625 72.90625 61.171875 64.09375 
Q 71.09375 55.28125 71.09375 36.53125 
Q 71.09375 17.671875 61.125 8.828125 
Q 51.171875 0 30.078125 0 
L 9.8125 0 
z
" id="DejaVuSans-68"/>
       <path d="M 53.515625 70.515625 
L 53.515625 60.890625 
Q 47.90625 63.578125 42.921875 64.890625 
Q 37.9375 66.21875 33.296875 66.21875 
Q 25.25 66.21875 20.875 63.09375 
Q 16.5 59.96875 16.5 54.203125 
Q 16.5 49.359375 19.40625 46.890625 
Q 22.3125 44.4375 30.421875 42.921875 
L 36.375 41.703125 
Q 47.40625 39.59375 52.65625 34.296875 
Q 57.90625 29 57.90625 20.125 
Q 57.90625 9.515625 50.796875 4.046875 
Q 43.703125 -1.421875 29.984375 -1.421875 
Q 24.8125 -1.421875 18.96875 -0.25 
Q 13.140625 0.921875 6.890625 3.21875 
L 6.890625 13.375 
Q 12.890625 10.015625 18.65625 8.296875 
Q 24.421875 6.59375 29.984375 6.59375 
Q 38.421875 6.59375 43.015625 9.90625 
Q 47.609375 13.234375 47.609375 19.390625 
Q 47.609375 24.75 44.3125 27.78125 
Q 41.015625 30.8125 33.5 32.328125 
L 27.484375 33.5 
Q 16.453125 35.6875 11.515625 40.375 
Q 6.59375 45.0625 6.59375 53.421875 
Q 6.59375 63.09375 13.40625 68.65625 
Q 20.21875 74.21875 32.171875 74.21875 
Q 37.3125 74.21875 42.625 73.28125 
Q 47.953125 72.359375 53.515625 70.515625 
z
" id="DejaVuSans-83"/>
       <path d="M 9.8125 72.90625 
L 24.515625 72.90625 
L 43.109375 23.296875 
L 61.8125 72.90625 
L 76.515625 72.90625 
L 76.515625 0 
L 66.890625 0 
L 66.890625 64.015625 
L 48.09375 14.015625 
L 38.1875 14.015625 
L 19.390625 64.015625 
L 19.390625 0 
L 9.8125 0 
z
" id="DejaVuSans-77"/>
       <path d="M 4.890625 31.390625 
L 31.203125 31.390625 
L 31.203125 23.390625 
L 4.890625 23.390625 
z
" id="DejaVuSans-45"/>
       <path d="M 2.984375 54.6875 
L 12.5 54.6875 
L 29.59375 8.796875 
L 46.6875 54.6875 
L 56.203125 54.6875 
L 35.6875 0 
L 23.484375 0 
z
" id="DejaVuSans-118"/>
      </defs>
      <use xlink:href="#DejaVuSans-68"/>
      <use x="77.001953" xlink:href="#DejaVuSans-83"/>
      <use x="140.478516" xlink:href="#DejaVuSans-77"/>
      <use x="226.757812" xlink:href="#DejaVuSans-45"/>
      <use x="262.841797" xlink:href="#DejaVuSans-100"/>
      <use x="326.318359" xlink:href="#DejaVuSans-101"/>
      <use x="387.841797" xlink:href="#DejaVuSans-114"/>
      <use x="428.955078" xlink:href="#DejaVuSans-105"/>
      <use x="456.738281" xlink:href="#DejaVuSans-118"/>
      <use x="515.917969" xlink:href="#DejaVuSans-101"/>
      <use x="577.441406" xlink:href="#DejaVuSans-100"/>
      <use x="640.917969" xlink:href="#DejaVuSans-32"/>
      <use x="672.705078" xlink:href="#DejaVuSans-114"/>
      <use x="711.568359" xlink:href="#DejaVuSans-111"/>
      <use x="772.75" xlink:href="#DejaVuSans-117"/>
      <use x="836.128906" xlink:href="#DejaVuSans-103"/>
      <use x="899.605469" xlink:href="#DejaVuSans-104"/>
      <use x="962.984375" xlink:href="#DejaVuSans-110"/>
      <use x="1026.363281" xlink:href="#DejaVuSans-101"/>
      <use x="1087.886719" xlink:href="#DejaVuSans-115"/>
      <use x="1139.986328" xlink:href="#DejaVuSans-115"/>
     </g>
    </g>
   </g>
   <g id="line2d_10">
    <path clip-path="url(#p9d15434d43)" d="M 229.085781 228.260563 
L 230.106329 227.790328 
L 231.126877 227.320092 
L 232.147424 226.849857 
L 233.167972 226.379621 
L 234.18852 225.909385 
L 235.209067 225.43915 
L 236.229615 224.968914 
L 237.250163 224.498679 
L 238.27071 224.028443 
L 239.291258 223.558207 
L 240.311806 223.087972 
L 241.332353 222.617736 
L 242.352901 222.147501 
L 243.373449 221.677265 
L 244.393996 221.207029 
L 245.414544 220.736794 
L 246.435092 220.266558 
L 247.455639 219.796323 
L 248.476187 219.326087 
L 249.496735 218.855851 
L 250.517282 218.385616 
L 251.53783 217.91538 
L 252.558378 217.445145 
L 253.578925 216.974909 
L 254.599473 216.504673 
L 255.620021 216.034438 
L 256.640568 215.564202 
L 257.661116 215.093967 
L 258.681664 214.623731 
L 259.702211 214.153495 
L 260.722759 213.68326 
L 261.743307 213.213024 
L 262.763854 212.742789 
L 263.784402 212.272553 
L 264.80495 211.802317 
L 265.825497 211.332082 
L 266.846045 210.861846 
L 267.866593 210.391611 
L 268.88714 209.921375 
L 269.907688 209.451139 
L 270.928236 208.980904 
L 271.948783 208.510668 
L 272.969331 208.040432 
L 273.989879 207.570197 
L 275.010426 207.099961 
L 276.030974 206.629726 
L 277.051522 206.15949 
L 278.072069 205.689254 
L 279.092617 205.219019 
L 280.113165 204.748783 
L 281.133712 204.278548 
L 282.15426 203.808312 
L 283.174808 203.338076 
L 284.195355 202.867841 
L 285.215903 202.397605 
L 286.236451 201.92737 
L 287.256998 201.457134 
L 288.277546 200.986898 
L 289.298094 200.516663 
L 290.318641 200.046427 
L 291.339189 199.576192 
L 292.359737 199.105956 
L 293.380284 198.63572 
L 294.400832 198.165485 
L 295.42138 197.695249 
L 296.441927 197.225014 
L 297.462475 196.754778 
L 298.483022 196.284542 
L 299.50357 195.814307 
L 300.524118 195.344071 
L 301.544665 194.873836 
L 302.565213 194.4036 
L 303.585761 193.933364 
L 304.606308 193.463129 
L 305.626856 192.992893 
L 306.647404 192.522658 
L 307.667951 192.052422 
L 308.688499 191.582186 
L 309.709047 191.111951 
L 310.729594 190.641715 
L 311.750142 190.17148 
L 312.77069 189.701244 
L 313.791237 189.231008 
L 314.811785 188.760773 
L 315.832333 188.290537 
L 316.85288 187.820302 
L 317.873428 187.350066 
L 318.893976 186.87983 
L 319.914523 186.409595 
L 320.935071 185.939359 
L 321.955619 185.469124 
L 322.976166 184.998888 
L 323.996714 184.528652 
L 325.017262 184.058417 
L 326.037809 183.588181 
L 327.058357 183.117946 
L 328.078905 182.64771 
L 329.099452 182.177474 
L 330.12 181.707239 
" style="fill:none;stroke:#1f77b4;stroke-linecap:square;stroke-width:2.25;"/>
   </g>
   <g id="line2d_11">
    <path clip-path="url(#p9d15434d43)" d="M 229.085781 182.555682 
L 230.106329 181.83601 
L 231.126877 181.116338 
L 232.147424 180.396665 
L 233.167972 179.676993 
L 234.18852 178.95732 
L 235.209067 178.237648 
L 236.229615 177.517976 
L 237.250163 176.798303 
L 238.27071 176.078631 
L 239.291258 175.358959 
L 240.311806 174.639286 
L 241.332353 173.919614 
L 242.352901 173.199942 
L 243.373449 172.480269 
L 244.393996 171.760597 
L 245.414544 171.040924 
L 246.435092 170.321252 
L 247.455639 169.60158 
L 248.476187 168.881907 
L 249.496735 168.162235 
L 250.517282 167.442563 
L 251.53783 166.72289 
L 252.558378 166.003218 
L 253.578925 165.283546 
L 254.599473 164.563873 
L 255.620021 163.844201 
L 256.640568 163.124528 
L 257.661116 162.404856 
L 258.681664 161.685184 
L 259.702211 160.965511 
L 260.722759 160.245839 
L 261.743307 159.526167 
L 262.763854 158.806494 
L 263.784402 158.086822 
L 264.80495 157.367149 
L 265.825497 156.647477 
L 266.846045 155.927805 
L 267.866593 155.208132 
L 268.88714 154.48846 
L 269.907688 153.768788 
L 270.928236 153.049115 
L 271.948783 152.329443 
L 272.969331 151.609771 
L 273.989879 150.890098 
L 275.010426 150.170426 
L 276.030974 149.450753 
L 277.051522 148.731081 
L 278.072069 148.011409 
L 279.092617 147.291736 
L 280.113165 146.572064 
L 281.133712 145.852392 
L 282.15426 145.132719 
L 283.174808 144.413047 
L 284.195355 143.693375 
L 285.215903 142.973702 
L 286.236451 142.25403 
L 287.256998 141.534357 
L 288.277546 140.814685 
L 289.298094 140.095013 
L 290.318641 139.37534 
L 291.339189 138.655668 
L 292.359737 137.935996 
L 293.380284 137.216323 
L 294.400832 136.496651 
L 295.42138 135.776978 
L 296.441927 135.057306 
L 297.462475 134.337634 
L 298.483022 133.617961 
L 299.50357 132.898289 
L 300.524118 132.178617 
L 301.544665 131.458944 
L 302.565213 130.739272 
L 303.585761 130.0196 
L 304.606308 129.299927 
L 305.626856 128.580255 
L 306.647404 127.860582 
L 307.667951 127.14091 
L 308.688499 126.421238 
L 309.709047 125.701565 
L 310.729594 124.981893 
L 311.750142 124.262221 
L 312.77069 123.542548 
L 313.791237 122.822876 
L 314.811785 122.103203 
L 315.832333 121.383531 
L 316.85288 120.663859 
L 317.873428 119.944186 
L 318.893976 119.224514 
L 319.914523 118.504842 
L 320.935071 117.785169 
L 321.955619 117.065497 
L 322.976166 116.345825 
L 323.996714 115.626152 
L 325.017262 114.90648 
L 326.037809 114.186807 
L 327.058357 113.467135 
L 328.078905 112.747463 
L 329.099452 112.02779 
L 330.12 111.308118 
" style="fill:none;stroke:#ff7f0e;stroke-linecap:square;stroke-width:2.25;"/>
   </g>
   <g id="patch_3">
    <path d="M 112.68 252 
L 112.68 34.56 
" style="fill:none;stroke:#000000;stroke-linecap:square;stroke-linejoin:miter;stroke-width:0.8;"/>
   </g>
   <g id="patch_4">
    <path d="M 330.12 252 
L 330.12 34.56 
" style="fill:none;stroke:#000000;stroke-linecap:square;stroke-linejoin:miter;stroke-width:0.8;"/>
   </g>
   <g id="patch_5">
    <path d="M 112.68 252 
L 330.12 252 
" style="fill:none;stroke:#000000;stroke-linecap:square;stroke-linejoin:miter;stroke-width:0.8;"/>
   </g>
   <g id="patch_6">
    <path d="M 112.68 34.56 
L 330.12 34.56 
" style="fill:none;stroke:#000000;stroke-linecap:square;stroke-linejoin:miter;stroke-width:0.8;"/>
   </g>
   <g id="legend_1">
    <g id="patch_7">
     <path d="M 119.68 71.91625 
L 219.506563 71.91625 
Q 221.506563 71.91625 221.506563 69.91625 
L 221.506563 41.56 
Q 221.506563 39.56 219.506563 39.56 
L 119.68 39.56 
Q 117.68 39.56 117.68 41.56 
L 117.68 69.91625 
Q 117.68 71.91625 119.68 71.91625 
z
" style="fill:#ffffff;opacity:0.8;stroke:#cccccc;stroke-linejoin:miter;"/>
    </g>
    <g id="PathCollection_3">
     <g>
      <use style="fill:#1f77b4;fill-opacity:0.8;stroke:#1f77b4;stroke-opacity:0.8;" x="131.68" xlink:href="#m86a9b7a696" y="48.533437"/>
     </g>
    </g>
    <g id="text_11">
     <!-- 2d roughness -->
     <g transform="translate(149.68 51.158437)scale(0.1 -0.1)">
      <use xlink:href="#DejaVuSans-50"/>
      <use x="63.623047" xlink:href="#DejaVuSans-100"/>
      <use x="127.099609" xlink:href="#DejaVuSans-32"/>
      <use x="158.886719" xlink:href="#DejaVuSans-114"/>
      <use x="197.75" xlink:href="#DejaVuSans-111"/>
      <use x="258.931641" xlink:href="#DejaVuSans-117"/>
      <use x="322.310547" xlink:href="#DejaVuSans-103"/>
      <use x="385.787109" xlink:href="#DejaVuSans-104"/>
      <use x="449.166016" xlink:href="#DejaVuSans-110"/>
      <use x="512.544922" xlink:href="#DejaVuSans-101"/>
      <use x="574.068359" xlink:href="#DejaVuSans-115"/>
      <use x="626.167969" xlink:href="#DejaVuSans-115"/>
     </g>
    </g>
    <g id="PathCollection_4">
     <g>
      <use style="fill:#ff7f0e;fill-opacity:0.8;stroke:#ff7f0e;stroke-opacity:0.8;" x="131.68" xlink:href="#m4613714f6e" y="63.211562"/>
     </g>
    </g>
    <g id="text_12">
     <!-- 3d roughness -->
     <g transform="translate(149.68 65.836562)scale(0.1 -0.1)">
      <defs>
       <path d="M 40.578125 39.3125 
Q 47.65625 37.796875 51.625 33 
Q 55.609375 28.21875 55.609375 21.1875 
Q 55.609375 10.40625 48.1875 4.484375 
Q 40.765625 -1.421875 27.09375 -1.421875 
Q 22.515625 -1.421875 17.65625 -0.515625 
Q 12.796875 0.390625 7.625 2.203125 
L 7.625 11.71875 
Q 11.71875 9.328125 16.59375 8.109375 
Q 21.484375 6.890625 26.8125 6.890625 
Q 36.078125 6.890625 40.9375 10.546875 
Q 45.796875 14.203125 45.796875 21.1875 
Q 45.796875 27.640625 41.28125 31.265625 
Q 36.765625 34.90625 28.71875 34.90625 
L 20.21875 34.90625 
L 20.21875 43.015625 
L 29.109375 43.015625 
Q 36.375 43.015625 40.234375 45.921875 
Q 44.09375 48.828125 44.09375 54.296875 
Q 44.09375 59.90625 40.109375 62.90625 
Q 36.140625 65.921875 28.71875 65.921875 
Q 24.65625 65.921875 20.015625 65.03125 
Q 15.375 64.15625 9.8125 62.3125 
L 9.8125 71.09375 
Q 15.4375 72.65625 20.34375 73.4375 
Q 25.25 74.21875 29.59375 74.21875 
Q 40.828125 74.21875 47.359375 69.109375 
Q 53.90625 64.015625 53.90625 55.328125 
Q 53.90625 49.265625 50.4375 45.09375 
Q 46.96875 40.921875 40.578125 39.3125 
z
" id="DejaVuSans-51"/>
      </defs>
      <use xlink:href="#DejaVuSans-51"/>
      <use x="63.623047" xlink:href="#DejaVuSans-100"/>
      <use x="127.099609" xlink:href="#DejaVuSans-32"/>
      <use x="158.886719" xlink:href="#DejaVuSans-114"/>
      <use x="197.75" xlink:href="#DejaVuSans-111"/>
      <use x="258.931641" xlink:href="#DejaVuSans-117"/>
      <use x="322.310547" xlink:href="#DejaVuSans-103"/>
      <use x="385.787109" xlink:href="#DejaVuSans-104"/>
      <use x="449.166016" xlink:href="#DejaVuSans-110"/>
      <use x="512.544922" xlink:href="#DejaVuSans-101"/>
      <use x="574.068359" xlink:href="#DejaVuSans-115"/>
      <use x="626.167969" xlink:href="#DejaVuSans-115"/>
     </g>
    </g>
   </g>
  </g>
 </g>
 <defs>
  <clipPath id="p9d15434d43">
   <rect height="217.44" width="217.44" x="112.68" y="34.56"/>
  </clipPath>
 </defs>
</svg>
